<svg xmlns="http://www.w3.org/2000/svg" width="428.0726" height="476.9492" viewBox="0 0 428.0726 476.9492"><title>program-africa-program</title><path d="M420.31,346.01a7.4113,7.4113,0,0,1-.53-1.69,14.4463,14.4463,0,0,1-.21-1.47,3.2,3.2,0,0,1,0-1,.94.94,0,0,0,0-1,1.25,1.25,0,0,1-.06-1c0-.43-.1-.86-.1-1.28a4.0968,4.0968,0,0,0,0-.93,10.6138,10.6138,0,0,1-.6-2.31.8906.8906,0,0,0,0-.44c-.07-.17-.28.08-.3-.26a8.0023,8.0023,0,0,1-.17-1.14,1.44,1.44,0,0,0-.29-1.28c-.2-.18-.13-.1-.07-.31s-.24-.13-.31-.22a1.18,1.18,0,0,1-.1-.45,1.61,1.61,0,0,0-.33-.27c-.2-.34-.17.35-.54.27a.7.7,0,0,0-.45-1,2.1082,2.1082,0,0,1,0-1c0,.26.18.24.14,0a2.8387,2.8387,0,0,0-.2-.49c-.22.39-.46-.25-.23-.16s0-.68-.37-.23a1.86,1.86,0,0,0-.35-.84c-.41-.25,0,.36-.33.39s-.06-.23-.18-.26a.7287.7287,0,0,0-.32.17c-.26.09-.44.06-.21-.27.11.27.42.12.32-.05s-.27,0-.24-.2a.84.84,0,0,1,.13-.39c.11.24.25.09.32.12a.6892.6892,0,0,1,.34.19c0-.41-.07-1.54-.63-1.66a1.0007,1.0007,0,0,0-.35.49.56.56,0,0,0,.11.42c.15.31-.24,0-.22,0-.18,0-.12-.18-.36,0s-.2.19,0,.17a.6306.6306,0,0,1,.34.2c.09.12-.16.25-.2.36s.13.36-.13.43a.29.29,0,0,0-.31.21c-.07.12-.3-.06-.37.16a1.0621,1.0621,0,0,1-.31.21c-.15.15-.1,1.09-.51,1s-.1-.52-.54-.54a.42.42,0,0,0-.47.09c-.13.19.13.19.22.14a1.4614,1.4614,0,0,0,.28.47c.13.24,0,.3.24.27a1.1209,1.1209,0,0,1,0,.64c0,.06.18.34.21.47a1.6307,1.6307,0,0,1,.18,1.11,8.4093,8.4093,0,0,1-.61,1.13,2.14,2.14,0,0,0-.28.87c0,.11.11.29.1.37a1.5728,1.5728,0,0,1-.2.36,1.17,1.17,0,0,1-.78.89,1.3809,1.3809,0,0,1-.8-.07c-.22-.07-.42-.7-.45-.18a2.2413,2.2413,0,0,1,.26.76,1.0007,1.0007,0,0,0-.37,0,1.39,1.39,0,0,0-.37.24l-.21.09a.24.24,0,0,0-.11-.14c-.13.08-.17.08-.07.25a3.68,3.68,0,0,1-.14,1c-.1.36-.42.58-.73.27a1.21,1.21,0,0,1-.28-.7,2.2441,2.2441,0,0,0-.07-.4c0-.24-.25,0-.34-.15s0-.3-.12-.42a.1511.1511,0,0,0-.23,0c.01,0,0,.35-.2.16a.23.23,0,0,1,0-.22c-.13-.11-.14,0-.23.23s-.17.09-.31.23a.49.49,0,0,0,0,.74c-.41.12-.31.58-.24.89a1,1,0,0,0,.62.67c.39.24-.36.31-.3.44.17.35.67.29.59.75,0,.21-.18.37-.22.57s.06.27,0,.41-.38.56-.33.13.55-1.42-.32-1.3c.14.31.46.77,0,1s-.82-.52-.89.13c0,.31-.43.52-.5.87a4.1669,4.1669,0,0,0,.14.81.52.52,0,0,0,0,.47c.22.15.16-.18.33-.2s.07.07.26.21a.56.56,0,0,0,.47-.13.92.92,0,0,1,.62.45c.06.14-.07.93-.2.72s.28-.65-.06-.82-.22.39-.34.52a2.1,2.1,0,0,0-.72-.84,10.9381,10.9381,0,0,0-1.16,1.7c-.12.24-.24.54-.38.76a2.949,2.949,0,0,1-.27.28,5.7971,5.7971,0,0,1-.28.54c-.63.71-.44-.7-.26-1a1.05,1.05,0,0,0,.4-.92c-.05-.2.14-.63-.13-.73a1.34,1.34,0,0,0-.73.59c-.09.1-.53.56-.35.7a2.5549,2.5549,0,0,0,.41-.09c.23.21-.45.43-.58.54a5.1081,5.1081,0,0,0-.62.83,2.84,2.84,0,0,0-.76.76.41.41,0,0,0,.06.44,1.1184,1.1184,0,0,1,.16.31.999.999,0,0,1,.35.12.8548.8548,0,0,0,.08.39c.14.29.5.41-.05.55-.2,0-.23-.17-.43,0a.79.79,0,0,1-.36.18.83.83,0,0,0-.38.07,2.8544,2.8544,0,0,1-.2.34,1.78,1.78,0,0,1,.6-1.19c.26-.47-.11-.33-.32-.57a1.5292,1.5292,0,0,0-.2-.57,2.7506,2.7506,0,0,0-1.14.72,2.3407,2.3407,0,0,1-.57.42c-.26.09-.4.16-.1.3a1.2879,1.2879,0,0,0-.58.15c-.11.07-.2.18-.31.25a1.2415,1.2415,0,0,1-.33.13,3.06,3.06,0,0,0-1.13,1.3c-.09.26.34.07.17.49s-.36.36.1.41a.91.91,0,0,1,.67.85c-.21-.14-.26-.43-.5-.31a.5108.5108,0,0,1-.06.28c-.14.08-.15-.08-.28-.07s0,.26-.19.11a.6684.6684,0,0,1-.18-.27,2.9935,2.9935,0,0,1-.28-.57c-.05-.27.39-.83-.27-.87a1,1,0,0,0-1,.72c.24-.21.25-.17.26,0s0,.21-.17.24c-.57.12-.29-.31-.54-.48s-.64.27-.94.21-.77-.34-1,.13a1.0784,1.0784,0,0,0,0,.49,2.1509,2.1509,0,0,1-.2.51,1.8505,1.8505,0,0,1,0,.36c-.2.25-.17-.15-.18-.2-.14-.43-.16-.3-.63-.27a.7.7,0,0,0-.7.23,1.5036,1.5036,0,0,0,.19.31.5594.5594,0,0,1-.33.21c-.26.18-.49.32-.37-.13a3.8841,3.8841,0,0,0-.07-.79.82.82,0,0,0-.7.27,13.54,13.54,0,0,1-1.26,1.14,4.2013,4.2013,0,0,1-.77.44,1.0831,1.0831,0,0,1-.39-.17,3.3828,3.3828,0,0,0-.39,0c-.41,0-1.54-.34-1.71.11a1.71,1.71,0,0,0-.21,1.31.82.82,0,0,1,.08,1c-.24-.39,0,.68-.1.84a6.2609,6.2609,0,0,1-.72,1c-.19.32-.44.62-.63,1a4.0924,4.0924,0,0,1-.19.42c-.09.12-.29.28-.33.35-.15.25-.23.54-.39.81s-.31.5-.47.74c-.33.5-1,1.18-.6,1.92a3.09,3.09,0,0,1,.46,1.05,2.8394,2.8394,0,0,1-.21.88,24.3013,24.3013,0,0,0,.12,2.49,1.77,1.77,0,0,0,.07,1c.15.29.37.56.53.85a3,3,0,0,1,.47,2,2.42,2.42,0,0,0-.14,1.38c.16.41.47.72.65,1.11a3.27,3.27,0,0,1,.69,1.58c-.05.34-.42.52-.47.88a7.0448,7.0448,0,0,1-.13.7.47.47,0,0,0-.09.49,2.5284,2.5284,0,0,1,.53.69,1.4,1.4,0,0,1-.28,1,6.98,6.98,0,0,0-.66.68c-.14.26-.28.51-.43.76a7,7,0,0,1-.24.77,2.853,2.853,0,0,0-.56.62.71.71,0,0,1,0-.08,1.6591,1.6591,0,0,0-.34.82,4.1826,4.1826,0,0,1-.43.79c-.14.22-.42.29-.59.52a4.0011,4.0011,0,0,0-.59,1.59,2.22,2.22,0,0,1-.68,1.53,4.5393,4.5393,0,0,1-.88,0,3.3485,3.3485,0,0,1-.73.28,3.1292,3.1292,0,0,0-.31,1.2,2.27,2.27,0,0,1-.14,1.07,2.48,2.48,0,0,0-.77.72,2.15,2.15,0,0,1-.17,1c0-.06,0-.42-.09-.33a.59.59,0,0,0-.11.42c-.05.17-.15.38-.23.57a1.27,1.27,0,0,0,.06.93.76.76,0,0,1,.18.25c.05.29-.16,0-.24.08-.47.38,0,1.35,0,1.93a12.7091,12.7091,0,0,0,.26,1.78,1.79,1.79,0,0,0,.49,1.07,3.35,3.35,0,0,1,.88,1c.16.6-.19,1.35.34,1.82a1.69,1.69,0,0,1,.46.5.52.52,0,0,1-.09.46c-.08.4,0,.49-.45.66s-.2,1.18-.17,1.5-.08.57-.06.88,0,.47,0,.72a5.8264,5.8264,0,0,0,0,1.71c.2.78,1.22,1.14,1.38,2a5.4275,5.4275,0,0,0,0,.84c.1.28.32.5.4.79a1.26,1.26,0,0,0,.26.86,1.8494,1.8494,0,0,0,.56.25,3.14,3.14,0,0,1,.48.37,1.19,1.19,0,0,0,.44.19,3.7175,3.7175,0,0,1,.48.34c.2.08,0,.21-.14.14s-.21-.27-.39-.34c.07.65.74.73,1.32.81a3.66,3.66,0,0,1,2,.55,7.327,7.327,0,0,0,1,.79,1.27,1.27,0,0,1,.43.24c.17.22.09.41.37.47a4.5475,4.5475,0,0,0,.85-.12,7.8721,7.8721,0,0,1,.81,0c1,0,1.55-.74,2.31-1.2a10.8887,10.8887,0,0,1,1.56-.77c1.07-.46,2.28-1.08,3.49-.64a2.6,2.6,0,0,0,1.85-.82c.11-.24.17.18.35,0a2.9858,2.9858,0,0,1,.34-.37.69.69,0,0,0,.49-.66s.11.13.14.17a1.8892,1.8892,0,0,1,.31-.83,3.0016,3.0016,0,0,0,.5-.93,7.0828,7.0828,0,0,0,.71-2v-.41a1.1278,1.1278,0,0,1,.29-.27,3.2319,3.2319,0,0,0,.59-1.27,1.9984,1.9984,0,0,1,.37-.48,5.9355,5.9355,0,0,1,.33-.68,6.5207,6.5207,0,0,0,.4-1.29,1.4094,1.4094,0,0,0,.05-.5c0-.16-.22,0-.09-.3a.11.11,0,0,0,.2,0c.06-.14.11-.28.17-.43s.15-.38.23-.57a8.2344,8.2344,0,0,0,.46-1.15c.4-1.5.83-3,1.2-4.49a19.5078,19.5078,0,0,1,2-4.5c.49-.93.76-2,1.16-2.95.19-.47.26-1,.44-1.44.08-.25.72-1.49.36-1.46.46-1,.76-2.14,1.14-3.22a16.91,16.91,0,0,1,1.09-2.41,1.8816,1.8816,0,0,0,.28-.61l-.05-.4c.09-.23.07.06.25-.11a1,1,0,0,0,.22-.54c0-1.45,1.13-2.86,1.47-4.24a14.5509,14.5509,0,0,1,1-2.24c.33-.79.67-1.57,1-2.35a4.6513,4.6513,0,0,0,.46-1.08c.07-.31.05-.67.15-1s.31-.31.36-.46a3.0091,3.0091,0,0,0-.11-.43,4.0494,4.0494,0,0,1,.23-.86,9.5282,9.5282,0,0,0,.53-1.68,5.0856,5.0856,0,0,0-.09-.85,7.689,7.689,0,0,0-.13-.81,3.7841,3.7841,0,0,1-.2-.79c0-.84.89-1.75,1.14-2.54s1.13-.36,1.59-.76a.59.59,0,0,1-.62-.44.86.86,0,0,1,.46-.78,2.8984,2.8984,0,0,0,.49-1.11,2.3613,2.3613,0,0,0-.17-.71c-.05-.42.55-1.33-.32-1.42-.68-.08-.4-1-.24-1.32a2.5606,2.5606,0,0,0-.21-1.63,1.57,1.57,0,0,1,.2-1.5,1.16,1.16,0,0,1,.78-.3c.41-.1.56-.12.6.29a.9.9,0,0,0,.28.84.6.6,0,0,1,0,.49,1.55,1.55,0,0,0,.28.58,1.28,1.28,0,0,0,.39.89,2.8913,2.8913,0,0,1,.34.17.68.68,0,0,0,.1.21.38.38,0,0,0,.39.08.8592.8592,0,0,0,.25-.4,3.3147,3.3147,0,0,1,.23-.28,4.3036,4.3036,0,0,0,.37-.79,10.9876,10.9876,0,0,0,.74-1.59,2.8593,2.8593,0,0,0,.28-1.84C420.83,346.85,420.53,346.44,420.31,346.01Z" transform="translate(-0.0235 -0.0408)" style="fill:#00acc8"/><path d="M428.08,177.79a.5.5,0,0,1-.22.55,2.3754,2.3754,0,0,1-.43,0c-.16-.08-.3-.06-.46-.13a1.39,1.39,0,0,0-.78-.1,1.84,1.84,0,0,0-1.24.72,6.7569,6.7569,0,0,1,0,1,2.19,2.19,0,0,0,.07.89,4.6276,4.6276,0,0,1-.24,1.16c-.07.3-.09.62-.13.93a3.1724,3.1724,0,0,0-.12,1,1.27,1.27,0,0,1,.07,1,3.0839,3.0839,0,0,1-.5.76,1.4884,1.4884,0,0,0-.34.28,2.059,2.059,0,0,0-.14,1c-.13.56-.83.71-1.09,1.16a5.0879,5.0879,0,0,0-.4,1.07,7.7187,7.7187,0,0,0-.42,1v.45a1.8188,1.8188,0,0,1-.41.52,9.1387,9.1387,0,0,0-.57,1,2.33,2.33,0,0,1-.9,1.41,3.44,3.44,0,0,0-1,.94,1.24,1.24,0,0,0-.14,1.05,1.14,1.14,0,0,1-.27.83,18.927,18.927,0,0,1-1.34,2.67,24.9977,24.9977,0,0,0-2.31,4.41,3.26,3.26,0,0,0-.4,1.67,4.08,4.08,0,0,1-.76,2.19,25.1946,25.1946,0,0,1-2.3,4,24.445,24.445,0,0,0-2.77,4.38,12.94,12.94,0,0,1-1.9,2.93c-.58.71-1.19,1.35-1.7,2.1a14.7927,14.7927,0,0,1-1.51,1.61c-.68.71-1.21,1.51-1.87,2.21-.43.46-.75,1-1.17,1.45-.57.62-1.15,1.19-1.76,1.77-1,1-1.84,1.94-2.77,3a16.8849,16.8849,0,0,1-3.1,2.06,17.7109,17.7109,0,0,1-2.71,1.54,17.3815,17.3815,0,0,0-3.84,2.71c-.28.23-.61.41-.86.64a9.222,9.222,0,0,1-.92.91,4.0826,4.0826,0,0,0-.66.65,9.598,9.598,0,0,0-.74.68c-.37.46-1,.65-1.36,1.14a5.9282,5.9282,0,0,1-.89.79,25.0232,25.0232,0,0,0-1.79,1.9c-1.14,1.29-2.2,2.65-3.39,3.92a18.51,18.51,0,0,0-1.8,1.88c-.07.11-.08.35-.13.41a.49.49,0,0,0-.22.09,10.5836,10.5836,0,0,0-.74.82,7.6292,7.6292,0,0,1-1,1.41l-2,2.9a6.9128,6.9128,0,0,1-.71,1.23c-.2.34-.41.66-.62,1h0a1.2,1.2,0,0,1-.38,1.19,2.7927,2.7927,0,0,0-.3.4,4.2654,4.2654,0,0,1-.45.59.43.43,0,0,1-.34.15,3.6506,3.6506,0,0,0-2.7,1.18h0a.9294.9294,0,0,1,.1.23.78.78,0,0,1,.47.58.811.811,0,0,1-1.03.88v.09a1.11,1.11,0,0,1-.6.76l-.15.11a1.5316,1.5316,0,0,0-.14.16,1.469,1.469,0,0,1-.52.46,1.17,1.17,0,0,1-.84,0h-.18a2.093,2.093,0,0,0-.61.22,3.6939,3.6939,0,0,0-.61.39,1.31,1.31,0,0,0-.32.46.7057.7057,0,0,0,0,.13,1.7205,1.7205,0,0,1,0,.37,3.6439,3.6439,0,0,0-.08.48.4519.4519,0,0,1,.16.09.46.46,0,0,1,.13.52,2.5654,2.5654,0,0,1-.22.41,1.3282,1.3282,0,0,0-.18.3,4.61,4.61,0,0,0-.15.68v.23a1.24,1.24,0,0,1-.64.83l-.14.09a1.9168,1.9168,0,0,1-.39.23l-.14.42c-.05.17-.1.32-.12.38l-.06.13a2.0858,2.0858,0,0,1-.21.43,1.29,1.29,0,0,1-.05.76v.13a.7214.7214,0,0,0,0,.24,1,1,0,0,1-.63,1,1.6605,1.6605,0,0,0-.62,1.24,4.7151,4.7151,0,0,1-.41,1.08c-.07.16-.14.3-.17.39a2.5074,2.5074,0,0,1-.41.84,1.0813,1.0813,0,0,0-.13.31,1.66,1.66,0,0,1-.24.53.53.53,0,0,1-.28.17l-.9.2h-.05l-.16.17a1.1218,1.1218,0,0,1,0,.17.49.49,0,0,1-.06.25.58.58,0,0,1,.06.28,1.858,1.858,0,0,1-.2.74.93.93,0,0,0-.45.79.69.69,0,0,1,.1.73.49.49,0,0,1-.37.26v.06a.1777.1777,0,0,1,0,.06,2.1,2.1,0,0,1-.36,1.24,2.26,2.26,0,0,0-.18.38,4.3116,4.3116,0,0,1-.46,1.18,5.0009,5.0009,0,0,0-.49,1.39c-.06.23-.12.46-.19.69a2.641,2.641,0,0,1-.14.34.32.32,0,0,0-.05.32.73.73,0,0,0,.14.25,1.14,1.14,0,0,1,.29.91c-.09.72,0,1,.37,1.15l.23.08a1.4493,1.4493,0,0,1,.76.47l.23.26a3.5984,3.5984,0,0,1,.58.76.7194.7194,0,0,1,.07.22.6.6,0,0,1,.32.35.7477.7477,0,0,1,.05.21,2.5089,2.5089,0,0,1,.84.28,2.11,2.11,0,0,1,.72,1.64,1.28,1.28,0,0,1-.55,1.28.5095.5095,0,0,1-.3.07,1.1961,1.1961,0,0,1-.11.22,2.3063,2.3063,0,0,1-.16.24l-.08.11a1.18,1.18,0,0,1-.32.87.6956.6956,0,0,0-.09.13,1.9183,1.9183,0,0,0-.08.94q0,.11,0,.23a.5606.5606,0,0,1,.29.18.7377.7377,0,0,1,.08.14l.17.09a.8.8,0,0,1,.31,1.05.8186.8186,0,0,0,0,.17v.12a.4705.4705,0,0,1,.18.34,3.3111,3.3111,0,0,1-.7,1.72v.08a1,1,0,0,1-.3.6h0a1.8344,1.8344,0,0,1,0,.57v.2a1.1385,1.1385,0,0,0,.12.34,1.8418,1.8418,0,0,1,.2.9v.11a.6214.6214,0,0,1,.23.14,2.2889,2.2889,0,0,1,.41.61,1.85,1.85,0,0,0,.35.51.48.48,0,0,1,.17.42.5.5,0,0,1-.27.38h-.07a.8987.8987,0,0,1,0,.29l.21.06a1.18,1.18,0,0,1,.55.68,3.11,3.11,0,0,1,.09,1.53.8376.8376,0,0,1-.09.22,1.4057,1.4057,0,0,1,.1.27,3.5506,3.5506,0,0,1,.41.91,2.16,2.16,0,0,1,.13.91,1.28,1.28,0,0,1,.31,1.09.8053.8053,0,0,1-.06.14.617.617,0,0,1,0,.15l.26.13a1.35,1.35,0,0,1,.69.65h0a1.5508,1.5508,0,0,1,.59.2l.11.06a.63.63,0,0,1,.41.29v.06a.89.89,0,0,1,1,.62.63.63,0,0,1,.9.35.65.65,0,0,1-.06.64.7646.7646,0,0,1,0,.19.45.45,0,0,1,.38.18.62.62,0,0,1,.12.55.66.66,0,0,1,.28.45,1.0707,1.0707,0,0,1,.42.35.47.47,0,0,1,.07.4.48.48,0,0,1-.27.3.9253.9253,0,0,1-.23.07.68.68,0,0,1,.25.5.86.86,0,0,1-.57.75h-.05a.76.76,0,0,1,.31.65,1.19,1.19,0,0,1-.29.65.4711.4711,0,0,0-.12.21,1.3,1.3,0,0,1-.57.81l-.07.07a.69.69,0,0,1,.37.88,2.4394,2.4394,0,0,0-.2.71.6407.6407,0,0,1,.08.3.55.55,0,0,1-.11.33.7391.7391,0,0,0,.07.28,3.5089,3.5089,0,0,1,.29.85,1.1094,1.1094,0,0,1-.09.48h0l.07.13a1.17,1.17,0,0,1,.18.52,1.37,1.37,0,0,1-.13.57.6491.6491,0,0,0-.06.29.9993.9993,0,0,1,0,.7.6284.6284,0,0,1-.08.17,1.6714,1.6714,0,0,1,.08.49l.07.09a.57.57,0,0,1,0,.57.7849.7849,0,0,1-.11.18.7.7,0,0,1,.29.68.48.48,0,0,1,.23.32.4894.4894,0,0,1-.09.36.74.74,0,0,1,.28.56.72.72,0,0,1-.2.51.7386.7386,0,0,1-.37.2.4358.4358,0,0,1,0,.13.3788.3788,0,0,1,0,.15.58.58,0,0,1,.2.23,1,1,0,0,1-.1.87.7415.7415,0,0,0,0,.29,2.2227,2.2227,0,0,1,0,.35,2.0563,2.0563,0,0,1-.13.55.4387.4387,0,0,1,0,.21.94.94,0,0,0,0,.13.91.91,0,0,1,0,.39,1.08,1.08,0,0,1-.17.5,1.0785,1.0785,0,0,0-.07.16.9939.9939,0,0,1,0,.16.66.66,0,0,1,0,1.12,1.5492,1.5492,0,0,1,.2.85,1.4608,1.4608,0,0,0,0,.17,3.0968,3.0968,0,0,0,.11.34,1.59,1.59,0,0,1,0,1.65h0a.78.78,0,0,1,.55.39,1.23,1.23,0,0,1,.07,1h0a.81.81,0,0,1,.55.51.9994.9994,0,0,1,0,.71,1.51,1.51,0,0,1,0,.48v.17a1.53,1.53,0,0,1,0,1.26,2.4292,2.4292,0,0,1-.55.67,1.2419,1.2419,0,0,1,.06.18.68.68,0,0,1,0,.56.58.58,0,0,1-.38.25h0a.7.7,0,0,1-.35.5h0a1.45,1.45,0,0,1-.29,1.76,3.1906,3.1906,0,0,0-.24.38.65.65,0,0,1-.13.54.73.73,0,0,1-.58.33l-.08.11-.1.13a2.3347,2.3347,0,0,0-.3.39,6.8367,6.8367,0,0,1-1.34,1.53l-.35.33a1.9993,1.9993,0,0,1-.57,1.22l-.18.25a1.61,1.61,0,0,1-.94.73h-.14l-.33.09v.19a.5063.5063,0,0,0,0,.1.52.52,0,0,1,.13.6.65.65,0,0,1-.65.36l-.17.23a2.1192,2.1192,0,0,1-.9.71,2.7368,2.7368,0,0,0-.37.21,6.8908,6.8908,0,0,1-.88.52,6.573,6.573,0,0,0-.68.38l-1,.65a.84.84,0,0,1-.14.64.7093.7093,0,0,1-.5.26,1.642,1.642,0,0,0-.75.19,1.71,1.71,0,0,1-1.09,0,1.8025,1.8025,0,0,0-.33-.06.5416.5416,0,0,0-.19.15.68.68,0,0,1-.57.29h-.11l-.21.14a.68.68,0,0,1-.39.31l-.24.08-.37.13a5.4222,5.4222,0,0,0-.57.24l-.12.16a1.14,1.14,0,0,1-.7.32,2.11,2.11,0,0,1-1,.39h-.2a2.7412,2.7412,0,0,0-1.09.63,1,1,0,0,1-.49.22h-.12a8.9879,8.9879,0,0,1-.84.5,12.2583,12.2583,0,0,0-1.85,1.12,1.2007,1.2007,0,0,1-.25.14,2.0787,2.0787,0,0,1-.43.55l-.16.17a3.1841,3.1841,0,0,0-.26.34,2.9963,2.9963,0,0,1-.45.54,1.94,1.94,0,0,1-.69,1.16h-.07a1.31,1.31,0,0,1-.71.85l-.26.19a3.5022,3.5022,0,0,0-.26.29,3.0037,3.0037,0,0,1-.78.72.4444.4444,0,0,1-.09.12.74.74,0,0,1-.3.17h0a1.6505,1.6505,0,0,1-.52,1,.62.62,0,0,1,0,.36.72.72,0,0,1-.85.44.5209.5209,0,0,1-.08.25.5.5,0,0,1-.59.3,1,1,0,0,1-.47.15.7288.7288,0,0,1-.26-.06l-.14-.08a1.0006,1.0006,0,0,1-.57.28.731.731,0,0,1-.38.25h-.05a.9311.9311,0,0,1-.31.2l-.18.11a5.3036,5.3036,0,0,0-.49.35l-.11.09-.15.12a.42.42,0,0,1-.2.39,2.6385,2.6385,0,0,0-.46.46h0l-.2.23a3.2622,3.2622,0,0,0-.22.25,7.1426,7.1426,0,0,1-1.17,1.49,17.2444,17.2444,0,0,1-2.49,2h-.11a.78.78,0,0,1-.88.24v.82a.83.83,0,0,1,0,.13,25.2034,25.2034,0,0,1-.36,1.66c0,.08-.08.17-.12.25v.09a.572.572,0,0,1,0,.18.51.51,0,0,1,.16.34,1.3389,1.3389,0,0,1,0,.29h0a1.5525,1.5525,0,0,1,.41.31,1.8609,1.8609,0,0,1,.19.29.44.44,0,0,1,.21.18v.06a1,1,0,0,1,.82,1,1.1236,1.1236,0,0,1,0,.25.3175.3175,0,0,0,0,.11v.14h.07a.63.63,0,0,1,.42.6.59.59,0,0,1-.05.62.38.38,0,0,1-.09.1.71.71,0,0,1-.09.43h0a.46.46,0,0,1,.3.32,1.6087,1.6087,0,0,1-.05.8,1.4154,1.4154,0,0,0-.06.28,1.9116,1.9116,0,0,0,.24.76l.2.38a2.47,2.47,0,0,1,.41,1.3,2.8958,2.8958,0,0,0,.1.69,5.1693,5.1693,0,0,1,.11.53,3.5016,3.5016,0,0,1,0,.54v.34a.5567.5567,0,0,1,0,.1,48.0321,48.0321,0,0,0-.22,5.1c1.38.87,1.39,1.12,1.4,1.32a1.12,1.12,0,0,1-.32.8.8024.8024,0,0,0-.12.17,1.8721,1.8721,0,0,0-.13.64,4.8289,4.8289,0,0,1-.09.63c-.06.21-.13.42-.2.61a4.4371,4.4371,0,0,0-.24.94v.22a4.3293,4.3293,0,0,1,0,.63h0a.76.76,0,0,1,.61.42,1.13,1.13,0,0,1-.06,1.09l-.05.12a2.5444,2.5444,0,0,0-.13.57,2.5193,2.5193,0,0,1-.35,1.09,11.9965,11.9965,0,0,1-1.04,1.52c-.13.15-.26.32-.38.49a4.3922,4.3922,0,0,1-.85,1,9.442,9.442,0,0,1-2.3,1.22c-1.09.44-2.31.88-3.62,1.3l-.26.08c-.66.21-1.35.42-2,.68-.42.18-.83.36-1.25.56a20.2917,20.2917,0,0,1-2.14.9h-.05a2.7621,2.7621,0,0,1-.9.63,3.0029,3.0029,0,0,0-.44.25,4.4759,4.4759,0,0,1-.43.28l-.31.19-1.33,2.23a2.13,2.13,0,0,1-.56.6,3.9934,3.9934,0,0,1,.39.8.6194.6194,0,0,1,.34.14,1.14,1.14,0,0,1,.64-.81,1.229,1.229,0,0,1,.46-.3.6083.6083,0,0,1-.06.29h0a.44.44,0,0,1,.24.3,2.33,2.33,0,0,1-.07,1.14,3.479,3.479,0,0,0-.08.39,2.2814,2.2814,0,0,1-.05.58c-.05.19,0,.6-.09.9l-.06.38c0,.23-.07.46-.09.7a2.8076,2.8076,0,0,1-.09.44,1.3082,1.3082,0,0,0-.06.46h0a.7754.7754,0,0,1,0,.12.5388.5388,0,0,1,0,.1h0a18.2411,18.2411,0,0,1-.68,2.32c-.13.32-.26.64-.39,1a16.5963,16.5963,0,0,0-.72,2c-.24.9-.4,1.78-.55,2.6a5.781,5.781,0,0,1-1,2.22c.17.69-1,1.78-1,1.79l-.17.16c-.21.21-.43.41-.66.61l-.09.07a2.1765,2.1765,0,0,1-.38.27l-.1.05a1.11,1.11,0,0,1-.43.46,2.9076,2.9076,0,0,1-.56.33,2.1915,2.1915,0,0,1-.94.31h-.12a3.6347,3.6347,0,0,0-.68.71,6.21,6.21,0,0,1-.6.67,16.8655,16.8655,0,0,0-1.63,1.74l-.23.27a7.6619,7.6619,0,0,0-1.25,2v.24a.4393.4393,0,0,1,0,.36,2.4994,2.4994,0,0,1-.82.95,2.5306,2.5306,0,0,0-.51.51c-.2.33-.39.67-.58,1a16.05,16.05,0,0,1-1.31,2.1,8.0014,8.0014,0,0,0-.51.81,5.6659,5.6659,0,0,1-.79,1.17c-.23.25-.44.53-.65.79a13.9157,13.9157,0,0,1-1,1.16c-.19.19-.36.39-.53.58a6.7918,6.7918,0,0,1-1.34,1.27,1.061,1.061,0,0,1-.45.15.58.58,0,0,0-.27.22,2.1753,2.1753,0,0,1-.23.26,5.1142,5.1142,0,0,1-.83.64c-.13.09-.28.16-.42.24l-.38.2a1.7852,1.7852,0,0,0-.17.21,3.6754,3.6754,0,0,1-.26.32,7.7385,7.7385,0,0,0-.65.72,2.4475,2.4475,0,0,1-.46.45,2.126,2.126,0,0,0-.22.2,2,2,0,0,0-.25.34,3.4254,3.4254,0,0,1-.37.49l-.42.45a8.2174,8.2174,0,0,1-.83.84l-.61.49c-.34.28-.66.53-1,.81a16.4474,16.4474,0,0,1-1.87,1.52l-.26.19a1.6721,1.6721,0,0,1-.51.24,1.0789,1.0789,0,0,0-.21.07,1.2069,1.2069,0,0,0-.13.2,1.9956,1.9956,0,0,1-.15.25,2.6008,2.6008,0,0,1-.78.67c-.12.08-.24.16-.35.25a4.6708,4.6708,0,0,1-.81.52l-.33.18c-.22.14-.44.29-.65.45a7.0917,7.0917,0,0,1-.7.47,10.6207,10.6207,0,0,0-1,.7c-.27.2-.54.4-.82.58l-.42.26a3.7659,3.7659,0,0,0-.33.2,2.9989,2.9989,0,0,1-.83.39,2.4342,2.4342,0,0,0-.52.21,2.3956,2.3956,0,0,1-.74.31l-.27.08a2.5949,2.5949,0,0,0-.5.24,3.1962,3.1962,0,0,1-.65.31,3.56,3.56,0,0,1-2.08.13h-.18a4.41,4.41,0,0,0-2-.12,1.81,1.81,0,0,0-1,.66.1.1,0,0,0,0,.11h.05a.68.68,0,0,1,.3356.9012.6893.6893,0,0,1-.0556.0988,1,1,0,0,1-.84.33,6.3147,6.3147,0,0,1-.79-.07h-.14a2.9982,2.9982,0,0,1-.91-.24,3.0048,3.0048,0,0,0-.48-.16,2.1194,2.1194,0,0,0-1.34,0,1.261,1.261,0,0,1-.22.59,1.3516,1.3516,0,0,1-.21.19.5508.5508,0,0,1-.05.29.73.73,0,0,1-.74.39,3.3736,3.3736,0,0,1-.57-.07h-.46a4.5374,4.5374,0,0,1-.68-.07,2.1207,2.1207,0,0,1-.62-.28,1.5348,1.5348,0,0,0-.3-.15c-.35-.11-.78-.2-1.14-.28a6.8938,6.8938,0,0,0-.86-.13l-.7-.1-.36-.07a5.187,5.187,0,0,0-1.55-.16,5.25,5.25,0,0,0-.57.09.38.38,0,0,1,0,.18.46.46,0,0,1-.42.49,4.2075,4.2075,0,0,1-1-.07l-.42-.05-.06-.48h0l-.09.48h-.38a.94.94,0,0,1-.49.13,2.2211,2.2211,0,0,1-1.18-.42,1.1209,1.1209,0,0,1-.8-.18,1.882,1.882,0,0,0-.29-.12.47.47,0,0,0-.28.14,1.4594,1.4594,0,0,1-.83.32h-.43a1.7991,1.7991,0,0,0-.68.06h-.07v.07a.47.47,0,0,1-.13.46,1.32,1.32,0,0,1-.83.28,1.0024,1.0024,0,0,0-.28,0l-.07.07a1.21,1.21,0,0,1-.22.53,1.53,1.53,0,0,1-1.31.58,4.5279,4.5279,0,0,1-1.12-.18.64.64,0,0,0-.59.15,1.9308,1.9308,0,0,1-.95.3,2.6012,2.6012,0,0,1-1-.25,2.8789,2.8789,0,0,0-.46-.16,1.5579,1.5579,0,0,0-.7,0,.7005.7005,0,0,1-.17.37,1.06,1.06,0,0,1-.89.16h-.1a2.93,2.93,0,0,0-1.19,0,.6189.6189,0,0,0-.31.24l-.25.24a7.104,7.104,0,0,1-.72.52l-.3.21a2.8771,2.8771,0,0,1-.47.24,1.782,1.782,0,0,0-.41.22.2009.2009,0,0,1-.06.14.84.84,0,0,1-.8.61h0a1.2093,1.2093,0,0,1-.76-.34.5619.5619,0,0,0-.17-.12,2.1023,2.1023,0,0,0-.45,0h-.28a.58.58,0,0,1-.45.09,1.65,1.65,0,0,1-.75-.45l-.14-.14q-.1339-.1269-.28-.24l-.3-.24h0a1,1,0,0,1-.36.09.65.65,0,0,1-.5-.3.76.76,0,0,1,.28-.9l.05-.06a.32.32,0,0,0-.14-.12h-.13a1.2,1.2,0,0,1-1-.24.61.61,0,0,1-.14-.21h-.23l-.2.08a1.9205,1.9205,0,0,1-.6.14.72.72,0,0,1-.68-.4,1,1,0,0,1,.09-.91.77.77,0,0,1-.05-.36.8084.8084,0,0,1,.11-.29,2.1092,2.1092,0,0,0-.84-.09,2.15,2.15,0,0,1-1.4,1.39c-.48,0-.76-.4-.84-1.19a1.1506,1.1506,0,0,1,.12-.55v-.09a1.78,1.78,0,0,1,.52-1.39.8087.8087,0,0,1,.35-.16.681.681,0,0,1,0-.07,1.4713,1.4713,0,0,1-.08-.48.7223.7223,0,0,0,0-.17,1.2607,1.2607,0,0,0-.25-.3,1.62,1.62,0,0,1-.44-.61.9307.9307,0,0,1,0-.42,1,1,0,0,0-.35-.46,1.2011,1.2011,0,0,1-.44-.29,1.2705,1.2705,0,0,1-.21-.54,1.6868,1.6868,0,0,0-.06-.22,2.8518,2.8518,0,0,0-.28-.29,1.69,1.69,0,0,1-.65-1,.74.74,0,0,1-.48-.77.44.44,0,0,0,0-.11v-.09a1.67,1.67,0,0,1-.07-.37.51.51,0,0,1,0-.19.48.48,0,0,1-.11-.35.63.63,0,0,1,.28-.43h0a.8.8,0,0,1,.15-.43.76.76,0,0,1,.61-.34.88.88,0,0,1,.63.35l.1.1a1.55,1.55,0,0,0,.94-.86,2.451,2.451,0,0,0,.18-.86v-.16a1.9935,1.9935,0,0,1,0-.38,2.4665,2.4665,0,0,1,.09-.38.5384.5384,0,0,0,0-.18l-.06-.43a4.6962,4.6962,0,0,0-.1-.74,2.8978,2.8978,0,0,0-.09-.33,2.288,2.288,0,0,1-.13-.68,1.5309,1.5309,0,0,0-.1-.5,2.5206,2.5206,0,0,0-.11-.41,3.0015,3.0015,0,0,0-.64-1.17,7.8882,7.8882,0,0,1-.5-.77,8.0014,8.0014,0,0,0-.61-.84,8.6312,8.6312,0,0,1-.73-1.05c-.13-.25-.29-.49-.43-.73a12.89,12.89,0,0,1-.77-1.38l-.32-.72c-.18-.42-.35-.82-.57-1.23a6.02,6.02,0,0,0-.32-.54,4.4283,4.4283,0,0,1-.56-1.1c-.09-.33-.19-.64-.29-1s-.21-.72-.32-1.09a6.71,6.71,0,0,0-.25-.71,7.1853,7.1853,0,0,1-.35-1.13,15.6787,15.6787,0,0,0-.57-2.11,4.9932,4.9932,0,0,0-.31-.72,4.7355,4.7355,0,0,1-.44-1.16.58.58,0,0,0-.2-.35l-.17-.19a2.1048,2.1048,0,0,1-.29-.54,1.0028,1.0028,0,0,0-.19-.35.76.76,0,0,1-.47-.44,2.2477,2.2477,0,0,1-.23-.8.4515.4515,0,0,0-.1-.15,1.658,1.658,0,0,1-.29-.41h-.09a2.1891,2.1891,0,0,1-1.11-.9c-.09-.11-.18-.22-.25-.29a9.1947,9.1947,0,0,1-.66-.72c-.15-.17-.3-.35-.47-.51s-.46-.41-.71-.61a4.46,4.46,0,0,1-1.57-1.86,1.74,1.74,0,0,0-.35-.5,1.79,1.79,0,0,1-.58-1.13,2.81,2.81,0,0,0-.61-1.18,6.0525,6.0525,0,0,1-.91-1.73,3.7426,3.7426,0,0,1-.11-1,3.1621,3.1621,0,0,0-.07-.72,1.6026,1.6026,0,0,1-.37-.33,2.1747,2.1747,0,0,1-.26-.65l-.1-.31a1.53,1.53,0,0,1-.13-1.1.76.76,0,0,1,.39-.42h0a1.8293,1.8293,0,0,0-.23-.69.5687.5687,0,0,0-.2-.11,1.34,1.34,0,0,1-.47-.29,1.16,1.16,0,0,1-.24-1,1.1737,1.1737,0,0,0,0-.25.5.5,0,0,1-.12-.42.6309.6309,0,0,1,.19-.33h0a.7788.7788,0,0,0-.14-.46l-.13-.24a1.101,1.101,0,0,1-.14-.67.6465.6465,0,0,1-.07-.13l-.08-.14a1.39,1.39,0,0,1-.19-1,4.5238,4.5238,0,0,1,.09-.46,1.3984,1.3984,0,0,0,.06-.54,2.6066,2.6066,0,0,0-.11-.31,3.3936,3.3936,0,0,1-.18-.59,2.92,2.92,0,0,1,.1-1.44,3.3585,3.3585,0,0,0,.13-.71.71.71,0,0,0-.14-.31,1.9137,1.9137,0,0,1-.24-.49,2.7153,2.7153,0,0,1-.07-.54.9394.9394,0,0,0-.07-.41,2.4233,2.4233,0,0,0-.4-.54,2.7487,2.7487,0,0,1-.55-.81,1.1694,1.1694,0,0,1,0-.69.39.39,0,0,0,0-.21,5.42,5.42,0,0,0-.27-.66l-.12-.26a4.6809,4.6809,0,0,1-.48-1.51,2.1905,2.1905,0,0,1,.13-1.27.8126.8126,0,0,1,.17-.23.17.17,0,0,0,0-.12v-.19a6,6,0,0,1-.06-.87,3.1793,3.1793,0,0,0-.13-1.07,1.39,1.39,0,0,1,.14-1.48l.06-.08a3.5564,3.5564,0,0,0-.25-.78,2,2,0,0,1,0-2.22.47.47,0,0,1,.45-.17h.06v-.77a3.1863,3.1863,0,0,1,0-.33,1.5088,1.5088,0,0,0-.07-.53l-.12-.24a4.476,4.476,0,0,1-.4-1,1.4593,1.4593,0,0,0-.31-.54,3.366,3.366,0,0,1-.34-.5,2.9,2.9,0,0,1-.16-.31,1.4113,1.4113,0,0,0-.22-.37l-.37-.43a9.917,9.917,0,0,1-.87-1.08.8877.8877,0,0,0-.16-.16,1.09,1.09,0,0,1-.39-.58.9017.9017,0,0,1,0-.33.8292.8292,0,0,0-.15-.24,1.67,1.67,0,0,1-.35-.68,4.14,4.14,0,0,0-.79-1.5l-.29-.42-1-1.61-.32-.49a5.7247,5.7247,0,0,1-.38-.61,2.1416,2.1416,0,0,1-.2-.83,2.0029,2.0029,0,0,0,0-.36,2.9981,2.9981,0,0,0-.29-.64,6.203,6.203,0,0,1-.32-.66,3.0037,3.0037,0,0,1-.16-.74.7217.7217,0,0,0-.06-.35,3.6238,3.6238,0,0,0-.24-.74,1.0007,1.0007,0,0,0-.3-.35,2.9837,2.9837,0,0,1-.32-.31,1.569,1.569,0,0,1-.33-.73,1.6954,1.6954,0,0,0-.06-.22,8.6762,8.6762,0,0,0-.74-1.39l-.13-.21a20.8639,20.8639,0,0,1-1-1.89,3.2656,3.2656,0,0,1-.16-.47,2.5837,2.5837,0,0,0-.22-.55,4.9911,4.9911,0,0,1-.3-.65,4.3345,4.3345,0,0,0-.3-.62l-.13-.11a.89.89,0,0,1-.45-.66,1.55,1.55,0,0,0-.46-.93l-.23-.3a4.26,4.26,0,0,0-.84-.86l-.28-.24a3.17,3.17,0,0,1-1-1.57c-.19-.55-1.71-5.25-1.37-7.34a1.5,1.5,0,0,1-.12-1v-.15a2.5171,2.5171,0,0,1,.07-.73,2.4247,2.4247,0,0,0,.06-.65v-.12a1.1813,1.1813,0,0,1,0-.58.56.56,0,0,1,.24-.28v-.12a18.1159,18.1159,0,0,0-.11-3l-.06-.72a2.6033,2.6033,0,0,1,.09-.73,1.5879,1.5879,0,0,0,.07-.43,1.3773,1.3773,0,0,0-.12-.18,1.4415,1.4415,0,0,1-.26-.44.93.93,0,0,1,.82-1.29h-.04a.8933.8933,0,0,0,.07-.17,1.61,1.61,0,0,1,.29-.55,1.3709,1.3709,0,0,1,.25-.22,1.24,1.24,0,0,0,.19-.72v-.26a5.8614,5.8614,0,0,1,.15-1.28.94.94,0,0,1,.42-.54.57.57,0,0,1,0-.46v-.15a5.8142,5.8142,0,0,1,.21-.63,2.6128,2.6128,0,0,0,.08-.27,1.89,1.89,0,0,1,.37-.85.61.61,0,0,0,.19-.52v-.12a8.0008,8.0008,0,0,1,.25-1.27,5.7576,5.7576,0,0,0,.24-1.41.77.77,0,0,1-.13-.28.63.63,0,0,1,.13-.6,1,1,0,0,1-.08-.41,1.1,1.1,0,0,1,.23-.57.498.498,0,0,0,.07-.11,1.19,1.19,0,0,0,.16-.48.63.63,0,0,1,.588-.6693l.012-.0007v-.55a2.9861,2.9861,0,0,1,.05-.64,3.5832,3.5832,0,0,0,0-.93.93.93,0,0,1,.51-1l.19-.14a.37.37,0,0,0,.12-.23,1.4,1.4,0,0,1,.42-.69.93.93,0,0,1,.33-.17h.11l.12-.16a2.2289,2.2289,0,0,1,.21-.27,4.7422,4.7422,0,0,0,.64-.77v-.16a1.4217,1.4217,0,0,1-.09-.49c0-.45.41-1,1.46-1.87a1.1394,1.1394,0,0,1,.67-.23h0a.58.58,0,0,1,.45-.22.59.59,0,0,1,.35.12l.06-.07.1-.1a1,1,0,0,0,.28-.42v-.12a1.6618,1.6618,0,0,1,.18-.45,1.7717,1.7717,0,0,1,.62-.65l.12-.05h0a5,5,0,0,0,.41-.66.946.946,0,0,1,.15-.38,6.36,6.36,0,0,0,.57-2.44v-2.18a5.29,5.29,0,0,1,.18-1.15,6.0132,6.0132,0,0,0,.16-.88v-.24a1.7769,1.7769,0,0,0,0-.52,1.32,1.32,0,0,0-.26-.36,1.809,1.809,0,0,1-.45-.75.91.91,0,0,1,.17-.74c-.08-.11-.18-.23-.27-.34l-.25-.31a4.1542,4.1542,0,0,0-.3-.34c-.09-.1-.19-.19-.28-.3a1.2,1.2,0,0,1-.33-.82v-.19a1.4484,1.4484,0,0,0-.23-.46,2.7451,2.7451,0,0,1-.32-.62,1.53,1.53,0,0,0-.25-.42,3.7136,3.7136,0,0,1-.21-.31,1.2594,1.2594,0,0,1-.25-.44.82.82,0,0,1,.05-.48,1.5729,1.5729,0,0,0-.25-.49l-.06-.08a1.1819,1.1819,0,0,0-.14-.18,1.4487,1.4487,0,0,1-.37-.63.7.7,0,0,1,.14-.56.387.387,0,0,1,0-.09v-.09a6.7536,6.7536,0,0,1-.2-.79,3,3,0,0,0-.37-1.11l-.13-.2a2.58,2.58,0,0,1-.65-1.56,2.24,2.24,0,0,1,1.05-1.55.41.41,0,0,1,.17-.06,1.671,1.671,0,0,1,.58-.68.45.45,0,0,1,.37,0,1.0006,1.0006,0,0,1,.41,0,3.2329,3.2329,0,0,0-.12-.38,1.84,1.84,0,0,1-.23-1,.71.71,0,0,1,.21-.41,1.18,1.18,0,0,0-.26-.76l-.14-.24a16.4742,16.4742,0,0,1-.94-2.06c-.09-.23-.18-.46-.28-.69-.18-.45-.35-.91-.52-1.37a18.3662,18.3662,0,0,0-.84-2.07,3.92,3.92,0,0,1-.38-1.57v-.27a1.5848,1.5848,0,0,0,0-.19,2.85,2.85,0,0,1-.06-.41,7.0008,7.0008,0,0,1-1.14-1.22,4.6883,4.6883,0,0,0-.38-.45,2.84,2.84,0,0,1-.56-1,3.4837,3.4837,0,0,0-.21-.49,4.3113,4.3113,0,0,1-.27-.69,2.1393,2.1393,0,0,0-.29-.68,1.0993,1.0993,0,0,1-.23-.44.4482.4482,0,0,0-.06-.13h0l-.06-.11a.46.46,0,0,1-.17-.43h0a4.14,4.14,0,0,1-.33-1.94h0a.3689.3689,0,0,1,0-.08h0a1.63,1.63,0,0,1-.3-1.65,1.48,1.48,0,0,1,.32-.4h0v-.13c-.09-.25-.17-.5-.24-.76a3.4121,3.4121,0,0,0-.36-.71,6.61,6.61,0,0,1-.38-.68.9994.9994,0,0,1-.2-.43,2.0893,2.0893,0,0,1-.55-.72,1.5572,1.5572,0,0,0-.1-.17,2.0664,2.0664,0,0,0-.2-.21,1.45,1.45,0,0,1-.56-1.06h0a.65.65,0,0,1-.15-.23.78.78,0,0,1,.07-.75,2.55,2.55,0,0,0-.76-.78,5.2025,5.2025,0,0,1-.4-.34l-.79-.74-.16-.15a1.8516,1.8516,0,0,1-.47-.72,2.1731,2.1731,0,0,0-.11-.26,1.66,1.66,0,0,0-.47-.39,2.5411,2.5411,0,0,1-.65-.58l-.11-.06-.21-.18a2.6693,2.6693,0,0,1-.72-.82,2.2017,2.2017,0,0,1-.16-.46.8072.8072,0,0,0-.11-.28,4.2367,4.2367,0,0,0-1-.86,7.163,7.163,0,0,1-.73-.58,1,1,0,0,1-.35-.81.4807.4807,0,0,0,0-.17,1.0981,1.0981,0,0,0-.24-.23,1.932,1.932,0,0,1-.41-.38,8.4054,8.4054,0,0,0-1.6-1.77l-.53-.39a11.555,11.555,0,0,1-1.79-1.51c-.09-.1-.2-.21-.31-.32a5.3107,5.3107,0,0,1-.88-1.07l-.61-.67a.4786.4786,0,0,1-.09-.13,4.274,4.274,0,0,1-.17-.48,1.569,1.569,0,0,0-.36-.73l-.19-.18a4.1072,4.1072,0,0,1-.59-.65l-.14-.17a2,2,0,0,1-.61-1.11,22.4138,22.4138,0,0,0-.57-2.9,1.35,1.35,0,0,1-.85-.5.82.82,0,0,1-.2-.49.48.48,0,0,1-.18-.42,6.6,6.6,0,0,0-.67-1.26,2.9438,2.9438,0,0,1-.17-.28,1.48,1.48,0,0,1-.42-1.45,1.08,1.08,0,0,1,1.1-.53,3.9025,3.9025,0,0,1,.6.05,1.2794,1.2794,0,0,0,.24-.31h0a1,1,0,0,1,.29-.93l.14-.17c.14-.17.29-.34.43-.52l.14-.17a1.5108,1.5108,0,0,0,.25-.36,1.3507,1.3507,0,0,0,0-.42,2.369,2.369,0,0,1,0-.68,4.14,4.14,0,0,0,.11-1.75v-.24a7.2671,7.2671,0,0,1-.12-.73v-.09a1.11,1.11,0,0,1,.1-.9h0l-.45-.3h1a.3179.3179,0,0,0-.09-.07.8516.8516,0,0,1-.23-.11.63.63,0,0,1-.33-.6.75.75,0,0,1,.56-.9,3.1737,3.1737,0,0,1,.42-.08h.26a.86.86,0,0,1,.75-.15,4.2228,4.2228,0,0,0-.24-.86,1,1,0,0,1,0-1,.709.709,0,0,1-.09-.24h-.17a1.9938,1.9938,0,0,1-.43.06.75.75,0,0,1-.55-.22.89.89,0,0,1-.22-.67,1.661,1.661,0,0,1,.44-.86,1.814,1.814,0,0,0,.12-.17.9976.9976,0,0,0,.1-.27,1.6711,1.6711,0,0,1,.25-.58,2.1364,2.1364,0,0,1,.29-.29.5509.5509,0,0,0,.19-.21v-.11a1.5942,1.5942,0,0,1,.19-.39l.16-.64a.5832.5832,0,0,1,.05-.13,1.5822,1.5822,0,0,1,.38-.38.7973.7973,0,0,0,.14-.12,1.735,1.735,0,0,0,.21-.37l.15-.29a.37.37,0,0,0,0-.45,2.0876,2.0876,0,0,1-.15-.65v-.21a1.38,1.38,0,0,1,.25-1.07,1.2389,1.2389,0,0,1,.16-.12,3.4579,3.4579,0,0,1-.1-1v-.31a5.0479,5.0479,0,0,1,.23-1.32,2.4685,2.4685,0,0,1,.13-.52,3.4826,3.4826,0,0,0,.05-.48,1.975,1.975,0,0,1,.06-.59,2.6349,2.6349,0,0,1,.25-.72.72.72,0,0,0,.09-.64v-.13a1.9071,1.9071,0,0,1-.15-.59,2.7579,2.7579,0,0,1-.43-.6,1.9985,1.9985,0,0,0-.16-.24,1.4207,1.4207,0,0,0-.31-.19,1.12,1.12,0,0,1-.76-.95.5164.5164,0,0,1,0-.15.44.44,0,0,1-.1-.19.42.42,0,0,1,0-.2c0-.08-.13-.18-.19-.26a1.09,1.09,0,0,1-.31-1.26,2.6466,2.6466,0,0,0,0-.29l-.17.21a.58.58,0,0,1-.48.24,1,1,0,0,1-.75-.44H166a.65.65,0,0,1-.49-.23.7337.7337,0,0,1-.07-.11.6207.6207,0,0,1-.22,0,3.9972,3.9972,0,0,1-1-.59.76.76,0,0,1-.27-.79v-.15a.26.26,0,0,0-.09-.19,1.9974,1.9974,0,0,1-.24-.42,3.4866,3.4866,0,0,1-.2-.83,5.4256,5.4256,0,0,0-1.1-.21h-.24a.9391.9391,0,0,1-.43-.09h-.11a.64.64,0,0,1-.61-.5.62.62,0,0,1,.06-.53.65.65,0,0,1,.05-.37.74.74,0,0,1-.1-.11h-.1a.64.64,0,0,1,0,.53,1.67,1.67,0,0,1-.48.56,2.29,2.29,0,0,1-1.39.19,3.4143,3.4143,0,0,0-.61,0c-.25,0-.53.06-.82.08h-.49a.44.44,0,0,1-.36.17h-.19a2.4982,2.4982,0,0,1-1.22-.23.8086.8086,0,0,1-.2-.17.9989.9989,0,0,1-.22,0,2.4771,2.4771,0,0,1-.57-.09h-.57a10.2608,10.2608,0,0,0-5,1.5h0a.48.48,0,0,1-.29.2h-.23l-1,.19a2.6559,2.6559,0,0,1-.68.06.7441.7441,0,0,1-.22,0l-.19-.11a.77.77,0,0,1-.75-.4h-.09a.53.53,0,0,1-.51-.38h0a1,1,0,0,1-.77-.42.61.61,0,0,1-.07-.51l-.21-.12a2.2606,2.2606,0,0,1-.79-.59,1.8308,1.8308,0,0,1-.29-.57.8471.8471,0,0,0-.07-.18.6865.6865,0,0,0-.11-.1.92.92,0,0,1-.37-.68.61.61,0,0,1,0-.18l-.1-.16a1.76,1.76,0,0,1-.13-.52v-.18l-.08-.16a1.5,1.5,0,0,1-.19-.49.91.91,0,0,1,0-.22.89.89,0,0,1-.17-.54v-.25a1.39,1.39,0,0,1,0-.94h-.11a.48.48,0,0,1-.35-.1,1.36,1.36,0,0,1-.54-.83.8813.8813,0,0,1,0-.35l-.2-.86a.6.6,0,0,1-.54-.07.81.81,0,0,1-.32-.54,4.16,4.16,0,0,0-.93-1.16l-.2-.19a19.662,19.662,0,0,0-1.58-1.47,3.62,3.62,0,0,0-2-.66,3.4654,3.4654,0,0,0-.72,0,5.7581,5.7581,0,0,1-.7.06,1.16,1.16,0,0,1-1.15-.6.69.69,0,0,0-.41-.44.4492.4492,0,0,0-.24.11,3.7914,3.7914,0,0,1-1.78.81.78.78,0,0,1-.27,0h-.92c-.48,0-.94.05-1.4.06a12.0472,12.0472,0,0,0-1.54.08h-.1c-.53.07-1.12.12-1.7.18l-.76.08a22.9073,22.9073,0,0,0-4.15.7h0a18.01,18.01,0,0,0-2.08.54l.36,1.06-1.05-.77c-.09.08-.17.15-.26.22a1.2036,1.2036,0,0,0-.29.24,1.5332,1.5332,0,0,0-.17.46,1.52,1.52,0,0,1-.78,1.13h-.16l-1.63.1a3.07,3.07,0,0,1-1.46,0,3.5433,3.5433,0,0,0-.55-.08,2.45,2.45,0,0,0-1.42.62,6.2891,6.2891,0,0,1-.82.52,8.445,8.445,0,0,1-1.82.66.74.74,0,0,0-.51.32l-.22.23a2.0009,2.0009,0,0,1-.89.46l-.19.06a1.359,1.359,0,0,0-.59.34l-.12.11a1.42,1.42,0,0,1-.93.45h-.17a2.32,2.32,0,0,1-.81,0l-.26.09a1.4383,1.4383,0,0,0-.26.11l-.16.11a2.2018,2.2018,0,0,1-.77.37c-.15,0-1.32.47-2.38.87a1.2823,1.2823,0,0,1-.24.11h-.1l-.09.11a1,1,0,0,1-.76.44,1.9966,1.9966,0,0,0-.46.28l-.16.15a1.06,1.06,0,0,1-.68.34,1.1279,1.1279,0,0,1-.41.09.8856.8856,0,0,1-.27,0,.55.55,0,0,1-.32-.28.6438.6438,0,0,1-.15-.08,3.703,3.703,0,0,1-.31-.28,3.1792,3.1792,0,0,0-.34-.31,1.581,1.581,0,0,0-.67-.27h-.18c-.28-.07-.56-.15-.84-.25a5.0881,5.0881,0,0,0-.72-.21,3.1314,3.1314,0,0,0-.47-.07l-.42-.06c-.32-.05-.66-.12-1-.19-.95-.26-1.26-.49-1.2-.89a.6118.6118,0,0,1,.06-.17.82.82,0,0,1-.19-.36,4.8676,4.8676,0,0,0-.22.6.49.49,0,0,1-.23.29.46.46,0,0,1-.36,0,14.3533,14.3533,0,0,0-3.39-.24c-3.84,0-9.28.42-10.11.49a3.5785,3.5785,0,0,1-1.37.31,3.6841,3.6841,0,0,0-.81.12,5.5441,5.5441,0,0,0-.72.33l-.3.15c-.43.21-.87.36-1.29.52l-.35.13-.39.18a3.867,3.867,0,0,1-.61.25c-.22.07-.43.16-.64.25a4.69,4.69,0,0,1-1.34.41,1.2607,1.2607,0,0,0-.66.22l-.22.2a2.3616,2.3616,0,0,1-.55.43,1.9985,1.9985,0,0,1-.63.22,1.36,1.36,0,0,0-.67.24l-.89.59a1.74,1.74,0,0,1-.93.35.88.88,0,0,1-.77-.42v-.08a1.32,1.32,0,0,1-.76-.13,2.1115,2.1115,0,0,0-.4-.2,4.1251,4.1251,0,0,0-.58-.49,19.5229,19.5229,0,0,0-2.22-.51c-.26-.1-.4-.37-.65-.48a2.9309,2.9309,0,0,1-.88-.4c-.26-.19-.49-.32-.76-.49a4.1514,4.1514,0,0,1-1.25-.61,5.05,5.05,0,0,0-1.53-.87c-.24-.15-.46-.28-.7-.44a5.2492,5.2492,0,0,1-.52-.37,3.2838,3.2838,0,0,1-.26-.32c-.23-.22-.56-.36-.8-.59s-.54-.72-.89-1.06a1.99,1.99,0,0,1-.2-.07c-.06-.06.06-.14.06-.14a3.0026,3.0026,0,0,0-.47-.41,5.4046,5.4046,0,0,1-1-1,17.43,17.43,0,0,1-1.32-1.26,1.14,1.14,0,0,0-.45-.55,4.41,4.41,0,0,1-.69-.63,4.2814,4.2814,0,0,0-.67-.37.21.21,0,0,1-.12-.2s.12,0,.1-.09a.4.4,0,0,1-.18-.09,1,1,0,0,0-.59-.31,5.6979,5.6979,0,0,1,.48.41,8.2039,8.2039,0,0,0-1.74-.62,1.61,1.61,0,0,1-.88-.6.527.527,0,0,0,.17,0,.37.37,0,0,1,.09-.57c-.27.11-.53-.43-.77-.6a10.926,10.926,0,0,0-1.74-.86c-.31-.14-1.55-.57-1.25-1h.11c-.14-.17-.27-.44-.45-.69a.8057.8057,0,0,1-.18.08h-.14a1.36,1.36,0,0,1-.6-.18l-.85-.63a6.3206,6.3206,0,0,0-1.35-.84c-.24-.1-.48-.18-.73-.26s-.56-.18-.83-.29l-.57-.09a8.55,8.55,0,0,0-.94-.4.48.48,0,0,1-.31-.38c-.12-.73-.5-1.77-.92-1.81a2.66,2.66,0,0,1-1.47-.79l-.16-.05a1.86,1.86,0,0,1-.63-.56l-.06-.05a.61.61,0,0,1-.22-.54.62.62,0,0,1,.36-.43,2.2932,2.2932,0,0,1,0-.49.5883.5883,0,0,1,0-.15l-.22-.24a1.4793,1.4793,0,0,1-.2-.26.6.6,0,0,0-.36.19.48.48,0,0,1-.85-.33,1.51,1.51,0,0,0-.52-1.23.46.46,0,0,1-.23-.43,5.3322,5.3322,0,0,1,.29-1.7,6.19,6.19,0,0,1-.28-2.07h0a.73.73,0,0,1-.11-.61v-.49a.8515.8515,0,0,1,0-.25.6791.6791,0,0,1-.4-.18,1.24,1.24,0,0,1-.25-.77,1.06,1.06,0,0,1-.26-.13l-.1-.1-.52-.75-1.13-2.21a.25.25,0,0,0-.25-.11,1.07,1.07,0,0,1-.69-.28,1.6983,1.6983,0,0,0-.21-.13,1.8191,1.8191,0,0,1-.44-.32l-1-.6a.84.84,0,0,1-.27-.33h0a1.7043,1.7043,0,0,1-.36-.27,1.4086,1.4086,0,0,0-.29-.16.46.46,0,0,1-.37.13.47.47,0,0,1-.33-.21,1,1,0,0,1-.11-.67v-.1l-.19-.13c-1-1.32-2-2.74-2.56-3.48a.2993.2993,0,0,1,0,.12.6992.6992,0,0,1-.35.2c-.22.3.28.44.08.69-1.07,0-.54-1.56.08-1.28l-.18-.22a.51.51,0,0,1-.13-.13.47.47,0,0,1,0-.49.62.62,0,0,1-.35-.18,1.26,1.26,0,0,1-.15-.87.8789.8789,0,0,1-.21-.07l-.23-.11a1.23,1.23,0,0,1-.87-.51,1,1,0,0,1,.43-1.09v-.06h0l-.13-.34H13.3a.73.73,0,0,1-.6.28.61.61,0,0,1-.62-.28.68.68,0,0,1,.22-.77,1.8907,1.8907,0,0,1,.58-.4v-.07a.51.51,0,0,1,.05-.19,4.7228,4.7228,0,0,0,.27-.64l-.12.07-.19.13a3.16,3.16,0,0,1-1.7.73.7106.7106,0,0,1-.21,0,.906.906,0,0,1-.23.08.4913.4913,0,0,1,.1.11.58.58,0,0,1,.31.27.78.78,0,0,1,0,.75.64.64,0,0,1-.41.23.2232.2232,0,0,1,0,.06.47.47,0,0,1-.38.13,2.27,2.27,0,0,0-.38.06c-.3-.08-.27-.25-.15-.41a.47.47,0,0,1-.07-.23.3691.3691,0,0,1,0-.16.4415.4415,0,0,1,0-.2.48.48,0,0,1,.28-.43,1,1,0,0,1,.17-.18h0a.651.651,0,0,1-.24-.15.63.63,0,0,1-.18-.46h0a.94.94,0,0,1-.3-.12.9292.9292,0,0,1-.33-.37,1.2988,1.2988,0,0,1-.52-.2,2,2,0,0,1-1-1l-.86-.85a2.2621,2.2621,0,0,1-.21-.21,2.11,2.11,0,0,0-.59-.5.41.41,0,0,1-.43,0,4.5586,4.5586,0,0,1-.48-.08.619.619,0,0,1-.3,0,.47.47,0,0,1-.25-.46l.32-4c0-.07-.06-.13-.09-.2a1.26,1.26,0,0,1-.15-1,1.14,1.14,0,0,1,.38-.51.73.73,0,0,1,.3-.15,1.69,1.69,0,0,1,.28-.92,9.2357,9.2357,0,0,0,.68-1H6.11c-.41-.15-.79-2.08-.79-2.08l-.71-.77a.48.48,0,0,1-.12-.29,1.7706,1.7706,0,0,0-.13-.59l-.1-.1a1.1988,1.1988,0,0,1-.33-.42,1.059,1.059,0,0,1-.08-.36,1.3,1.3,0,0,1-.32-.46.7605.7605,0,0,1,0-.39l-.16-.12-.19-.14a2.3606,2.3606,0,0,1-.69-1,1.07,1.07,0,0,0-.51-.65l-.21-.11-.2-.1a.64.64,0,0,1-.25.35.73.73,0,0,1-.33.11,1.09,1.09,0,0,1-.84-.74.5.5,0,0,1-.11-.46.62.62,0,0,1,.53-.4l.25-.07.24-.07a5.2694,5.2694,0,0,0,2.37-1.74,13.4957,13.4957,0,0,0,1.2-1.76l.2-.32a10.4725,10.4725,0,0,1,.62-.87,5.61,5.61,0,0,0,.9-1.45v-.4a1.4426,1.4426,0,0,1,0-.22l.1-1.2v-.44a4.81,4.81,0,0,1,.23-1.86,4,4,0,0,0,.18-.83,4.6071,4.6071,0,0,1,.24-1.05c.1-.26.21-.51.33-.76a8.7853,8.7853,0,0,0,.35-.82,4.0973,4.0973,0,0,1,.42-.81,3.9931,3.9931,0,0,0,.29-.52,16.1,16.1,0,0,0,1.5-6.13l-.1.07.11-.35v-1l-.77-.52h.75a3.7488,3.7488,0,0,0,0-.68,4.23,4.23,0,0,0-.18-.61,6.1482,6.1482,0,0,1-.2-.72,6.8591,6.8591,0,0,0-.12-.81,8.9379,8.9379,0,0,0-.29-1.48,2.17,2.17,0,0,0-.28-.64,1.43,1.43,0,0,0-.47-.42l-.36-.3a1.9,1.9,0,0,1-.59-1.24.64.64,0,0,1,.12-.36,4.4087,4.4087,0,0,1,.6-1.08,5.63,5.63,0,0,0,.73-.84,1.7,1.7,0,0,0,.27-.57.56.56,0,0,1-.37-.39.91.91,0,0,1,.44-.87l.09-.08a.9289.9289,0,0,0,.11-.14,1.29,1.29,0,0,1-.18-.49.58.58,0,0,1,.24-.57c.07-.15,0-.24-.22-.57a4.0022,4.0022,0,0,1-.29-.42,3.44,3.44,0,0,1-.31-.8,3.7862,3.7862,0,0,0-.19-.55h0a.58.58,0,0,1-.5.29.76.76,0,0,1-.61-.4.9019.9019,0,0,0-.11-.14,1.1608,1.1608,0,0,1-.44-.47.741.741,0,0,1,0-.29.7124.7124,0,0,1-.13-.16.64.64,0,0,1-.08-.31,3.9214,3.9214,0,0,1-.16-.36,1.3306,1.3306,0,0,1-.06-.22,2.2621,2.2621,0,0,1-.22-.24,4.6832,4.6832,0,0,1-.25-.49l-.07-.15h0a1.23,1.23,0,0,1-.29.82h0a.5327.5327,0,0,1,0,.17,2.1825,2.1825,0,0,1-.08.5h0a.47.47,0,0,1-.23.39H4.84a.6029.6029,0,0,1-.15-.08l-.07-.09a.3746.3746,0,0,1-.06-.07l-.09-.16a1,1,0,0,1-.14-1,1.5891,1.5891,0,0,0,.07-.35,2.7733,2.7733,0,0,1,.08-.42,11.59,11.59,0,0,0,.27-1.37l.07-.48a14.0974,14.0974,0,0,1,.31-1.6,2.13,2.13,0,0,0,.08-.49v-.34a1.9987,1.9987,0,0,1,.12-.4h.49l-.46-.13a.37.37,0,0,1-.06-.26,4.6393,4.6393,0,0,1,1-2.36c.1-.15.21-.29.32-.44s.18-.22.26-.33a1.2794,1.2794,0,0,1,.39-.48.65.65,0,0,1,.61-.12c.48-.07.57-.2.81-.89a1.3492,1.3492,0,0,1,.38-.57.7637.7637,0,0,0,.14-.14,1.4805,1.4805,0,0,0,.14-.56V96.9a3.6075,3.6075,0,0,1,.19-.71l.07-.21a1.09,1.09,0,0,1,.59-.8l.09-.06a.79.79,0,0,0,.16-.25l.01.08a.45.45,0,0,1-.13-.51,1.3706,1.3706,0,0,1,.39-.57.79.79,0,0,0,.15-.18,3.2216,3.2216,0,0,0,.13-.31,3.44,3.44,0,0,1,.27-.55l.19-.29a6.5565,6.5565,0,0,0,.52-.92,3.1135,3.1135,0,0,1,.19-.36.55.55,0,0,1-.25-.19.69.69,0,0,1,0-.64,4.6324,4.6324,0,0,1,.72-1.16,4.11,4.11,0,0,1,1.44-1.23,2.241,2.241,0,0,0,.77-.65l.3-.33c.18-.18.38-.35.59-.53a4.6,4.6,0,0,0,.72-.69,2.7441,2.7441,0,0,0,.2-.29,2.3291,2.3291,0,0,1,.59-.68,1.7209,1.7209,0,0,1,.52-.25l.19-.07a.37.37,0,0,0,.26-.28v-.09a1.34,1.34,0,0,1,.46-.45.65.65,0,0,0,.13-.09c.06-.22.12-.42.19-.63a4.8676,4.8676,0,0,0,.31-1.55,5.799,5.799,0,0,1,.32-2.33,2.94,2.94,0,0,1,.44-.74l.09-.12a2.9993,2.9993,0,0,0,.32-.75l.11-.33a5.8642,5.8642,0,0,1,.59-1.09,2.9992,2.9992,0,0,0,.6-1.37v-.12a1.43,1.43,0,0,1,.36-1,1.56,1.56,0,0,1,.7-.5l.23-.1a1.9084,1.9084,0,0,0,.31-.35,1.6,1.6,0,0,1,.82-.71,2.2623,2.2623,0,0,1,.5-.07,1.0794,1.0794,0,0,0,.38-.04,6.849,6.849,0,0,0,.76-.46c.26-.17.51-.33.78-.48,1.28-.68,1.61-1.75,2-3.11l.07-.24a2.4608,2.4608,0,0,1,.45-.74,1.4918,1.4918,0,0,0,.28-.43,1.79,1.79,0,0,1,.27-.61,2.1465,2.1465,0,0,0,.12-.21,9.5538,9.5538,0,0,0,.41-1.1l.12-.37h0a1.17,1.17,0,0,1,.74-.65,1.4524,1.4524,0,0,0,.23-.12,1.25,1.25,0,0,0,.26-.45,1.41,1.41,0,0,1,1.12-1c.39-.07.78-.11,1.16-.15a11.0551,11.0551,0,0,0,1.23-.19c.3-.07.62-.12.94-.17a9.8021,9.8021,0,0,0,1.36-.29,5.0543,5.0543,0,0,0,.67-.3c.22-.11.44-.22.66-.31l.65-.25.72-.26.17-.07a2.12,2.12,0,0,0,1.16-.75,8.3911,8.3911,0,0,1,1.23-1.28c.25-.23.49-.45.73-.69a6.4509,6.4509,0,0,1,2.12-1.34,5.6788,5.6788,0,0,0,2-1.25c.26-.3.54-.59.8-.87a16.45,16.45,0,0,0,1.13-1.28,2.601,2.601,0,0,0,.18-.47,4.5011,4.5011,0,0,1,.22-.4,6.77,6.77,0,0,1,.71-.94l.13-.16.42-.5a7.0558,7.0558,0,0,0,1-1.26,4.1215,4.1215,0,0,0,.56-1.41,3.4049,3.4049,0,0,1,.11-.43,1.82,1.82,0,0,0,.1-.43,1.2208,1.2208,0,0,0-.17-.36,2.4787,2.4787,0,0,1-.18-.31,1.25,1.25,0,0,0-.42-.45.539.539,0,0,0-.17-.06.81.81,0,0,1-.67-.65,1.21,1.21,0,0,1,.33-.86.9983.9983,0,0,0,.14-.21,3,3,0,0,0,0-.72v-.48a1.7078,1.7078,0,0,0,0-.37,2.3846,2.3846,0,0,1,0-.58,5.1808,5.1808,0,0,1,.18-.71l.08-.26v-.14a.5794.5794,0,0,0,0-.15.13.13,0,0,1-.07-.07.6.6,0,0,1-.14-.36,1.81,1.81,0,0,1,.58-1.16,2.644,2.644,0,0,0,.26-.33q.0894-.1859.16-.38a2.5991,2.5991,0,0,1,.54-.86c.27-.3.55-.58.84-.87l.42-.42.26-.24a2.5221,2.5221,0,0,0,.26-.23,3.8516,3.8516,0,0,0,.19-.37,3.6856,3.6856,0,0,1,.24-.46,1.4693,1.4693,0,0,0,.19-.67.46.46,0,0,1-.17-.4,1,1,0,0,1,.24-.64l.08-.12a.66.66,0,0,1,.0422-.9324A.6529.6529,0,0,1,55.98,31.53l.61-.58.91-.81c.26-.24.53-.47.8-.7s.69-.59,1-.91l.16-.15a3.3342,3.3342,0,0,0,.39-.4,1.2465,1.2465,0,0,0,.08-.19,1.38,1.38,0,0,1,.48-.67,1.2808,1.2808,0,0,1,.67-.17.6309.6309,0,0,0,.24-.07,1.7417,1.7417,0,0,0,.26-.25,2.0022,2.0022,0,0,1,.55-.44A5.4818,5.4818,0,0,1,63,25.9a5.4323,5.4323,0,0,0,.73-.23c.49-.22,1-.42,1.47-.6a1.8519,1.8519,0,0,0,.35-.17,1.72,1.72,0,0,1,.79-.31,1.09,1.09,0,0,0,.61-.27,3.4629,3.4629,0,0,1,.51-.33c.27-.13.56-.25.86-.38a8.8036,8.8036,0,0,0,1.7-.86,5.2814,5.2814,0,0,0,1.32-1.36l.34-.51a28.3381,28.3381,0,0,0,3.09-5.38,18.4765,18.4765,0,0,1,1-2.11q.225-.435.42-.87c.13-.29.36-.88.51-1.3v-.15a1.7892,1.7892,0,0,1,.18-.54.72.72,0,0,1,.68-.36h.43l.19-.08a1.3911,1.3911,0,0,1,.57-.18h.29a.43.43,0,0,0,.43-.14,1.36,1.36,0,0,1,.83-.35.86.86,0,0,1,.44.12,1.25,1.25,0,0,1,.5,1.07,1.42,1.42,0,0,0,0,.2,1.1794,1.1794,0,0,0,.13.37,2.6778,2.6778,0,0,1,.16.39,1,1,0,0,0,.33.41,3.1494,3.1494,0,0,1,.42.43,1.527,1.527,0,0,1,.16.27.5522.5522,0,0,0,.07.12h.1a1.4409,1.4409,0,0,1,.35.18c.14.1.27.21.4.32a4.2071,4.2071,0,0,0,.37.29,5.08,5.08,0,0,0,1.89.68l.32.07a.58.58,0,0,0,.44-.07l.24-.09a6.9224,6.9224,0,0,1,.76-.21l.49-.13a4.7009,4.7009,0,0,1,1-.19h.22a.65.65,0,0,1,.36.33l.07-.07a.67.67,0,0,1,.54-.44h.17a1.24,1.24,0,0,1,.56.16l.24.13a1.24,1.24,0,0,0,.51.19l.36.06a2.1546,2.1546,0,0,0,.34.05l.72-.32c.19-.09.37-.16.51-.24l.21-.09.1-.07a1.101,1.101,0,0,0,.08-.16,1.8417,1.8417,0,0,1,.21-.37.71.71,0,0,1,.55-.35.5.5,0,0,1,.38.18.69.69,0,0,1,.1.59.24.24,0,0,0,0,.17.4782.4782,0,0,1,0,.24.629.629,0,0,1,.19.21,1.9193,1.9193,0,0,1,.46.39,1.8682,1.8682,0,0,0,.17.17,1.42,1.42,0,0,0,.63.26.92.92,0,0,0,.57-.09l.27-.09h.11a1.08,1.08,0,0,1,.79.07,3.2225,3.2225,0,0,0,.4.13h.15l.18.07a1.1717,1.1717,0,0,1,.22,0,2.3319,2.3319,0,0,1,.37,0,2.7487,2.7487,0,0,0,.82,0,3.91,3.91,0,0,0,1.77-.86,3.08,3.08,0,0,1,.94-.61l.43-.1a.79.79,0,0,0,.5-.2,1.1482,1.1482,0,0,0,.21-.43.8657.8657,0,0,1,.13-.32,1.81,1.81,0,0,1,.55-.69l.17-.14a4.2,4.2,0,0,1,.93-.64,2.2086,2.2086,0,0,1,.56-.21,1.7994,1.7994,0,0,0,.31-.11.52.52,0,0,1,.45-.19h.14a1.31,1.31,0,0,1,.52.18.7331.7331,0,0,0,.2.07.8713.8713,0,0,1,.24-.22.85.85,0,0,1,.3-.12.0908.0908,0,0,1,0-.06,1.1962,1.1962,0,0,1,.07-.15l.06-.1a.67.67,0,0,1,.32-.32h.1a2.1107,2.1107,0,0,1,.61-.19,1.06,1.06,0,0,1,.74.38.88.88,0,0,1,.16.25h0a.67.67,0,0,0,.89-.08,1.19,1.19,0,0,0,.39-.61,2.996,2.996,0,0,1,.35-.68,1.9393,1.9393,0,0,1,.81-.57l.27-.13a.9984.9984,0,0,0,.24-.19,1.42,1.42,0,0,1,.76-.42,2.5323,2.5323,0,0,0,.55-.27l.34-.19a4.5484,4.5484,0,0,1,.79-.3,1.65,1.65,0,0,0,.49-.16l.25-.08.18-.06a1.0587,1.0587,0,0,1,.28-.33,3.14,3.14,0,0,1,1.31-.44l.5-.1a4.4994,4.4994,0,0,1,1.47-.13,5.24,5.24,0,0,0,1.44-.12,9.5564,9.5564,0,0,1,1.09-.14,8.4441,8.4441,0,0,0,1.89-.26h.09a2.15,2.15,0,0,1,1.07-.11.78.78,0,0,1,.39.26,2.1691,2.1691,0,0,0,.67,0,3.26,3.26,0,0,0,1.1-.63l.12-.14a1.43,1.43,0,0,1,1.33-.65,1,1,0,0,1,.66.38l.08.12h.05a.55.55,0,0,1,.34-.38.71.71,0,0,1,.57.09h.12a2.56,2.56,0,0,0,1.75-.19l.2-.14a1.54,1.54,0,0,1,.65-.35,1.94,1.94,0,0,1,1,0h.11a4.0993,4.0993,0,0,0,1.25,0,3.6916,3.6916,0,0,1,.5,0h2.34a4.1974,4.1974,0,0,1,.73,0,3.27,3.27,0,0,1,1.18.46l.25.13h.13a1.09,1.09,0,0,1,.65.35.64.64,0,0,1,.08.47l.35.13h.1a2,2,0,0,0,1.09-.07.48.48,0,0,0,.27-.23,1.9189,1.9189,0,0,1,.38-.38,2.47,2.47,0,0,1,1.35-.45h.11a4.1867,4.1867,0,0,0,1-.07,3.52,3.52,0,0,0,1.26-.44l.21-.55a.49.49,0,0,1,.11-.17,1.68,1.68,0,0,1,1.2-.53h0a1.21,1.21,0,0,1,1.09.63.4605.4605,0,0,0,.24.25h.58a1.674,1.674,0,0,1,.41,0,1,1,0,0,1,.53.36l.1.54V2.95a1.419,1.419,0,0,0,.35-.09,2.4865,2.4865,0,0,1,.46-.12.64.64,0,0,0,.48-.14.48.48,0,0,1,.18-.18l.92-.51a.46.46,0,0,1,.36,0h.53a1.1594,1.1594,0,0,1,.48.32l.11.09,1.65.91a2.53,2.53,0,0,0,.9-.25,1.8468,1.8468,0,0,0,.27-.13,2,2,0,0,1,.42-.19.79.79,0,0,1,.69,0h.1a2.52,2.52,0,0,0,1.69-.11h0a1.79,1.79,0,0,1,.68-.13.7979.7979,0,0,0,.24,0,1.62,1.62,0,0,0,.75-.47,2.23,2.23,0,0,1,1.05-.76l.74-.39h.09a2.69,2.69,0,0,1,.53-.07,1.7093,1.7093,0,0,0,.39-.06l.2-.07.67-.22.23-.1a2.1193,2.1193,0,0,1,.78-.23h.67a.86.86,0,0,1,.81.33.51.51,0,0,0,.34.28A.63.63,0,0,1,171,.57a1.001,1.001,0,0,1,.27.06h.11a1.0815,1.0815,0,0,0,.25.08.94.94,0,0,1,.75.55,1.43,1.43,0,0,1-.17,1.17.4208.4208,0,0,0,.13.16.64.64,0,0,1,.49.31,1.39,1.39,0,0,1,0,1.06c.1.15.26.08.41,0a.32.32,0,0,0,.13-.18,1.3787,1.3787,0,0,1,.27-.42,1.13,1.13,0,0,1,.81-.31,1.0052,1.0052,0,0,0,.23,0,2.537,2.537,0,0,0,.37-.27l.24-.2.14-.12a.57.57,0,0,1,.23-.39,4.8,4.8,0,0,1,1.08-.36h.15a.52.52,0,0,1,.29.25,5.8482,5.8482,0,0,1,.47,1.84.83.83,0,0,1-.48.46,1.84,1.84,0,0,0-.48.51,5.8473,5.8473,0,0,0-.39.65,3.0078,3.0078,0,0,0-.18.37,3.3931,3.3931,0,0,1-.24.49,1,1,0,0,1-.74.5l-.2.06a1.3,1.3,0,0,0-1.1,1.19,1.92,1.92,0,0,0,.55,1.49,2.695,2.695,0,0,1,.23.37.93.93,0,0,0,.38.46.78.78,0,0,1,.77.06.63.63,0,0,1,.2.59h.16a1.2591,1.2591,0,0,1,.68.2.69.69,0,0,1,.32.77v.11a.19.19,0,0,1,.08.12.73.73,0,0,1,.09.62c-.17.63-.11.86.34,1.11a.48.48,0,0,1,.24.46.47.47,0,0,1-.33.41,1,1,0,0,0-.43.7,1.2,1.2,0,0,1-.39.65,1.2142,1.2142,0,0,0-.16.17.5216.5216,0,0,0,0,.2,1.2193,1.2193,0,0,1-.28.69,1.1287,1.1287,0,0,0-.07.09,1.1688,1.1688,0,0,1-.25.32,1.1163,1.1163,0,0,1-.26.17l-.09.05-.07.15a1.42,1.42,0,0,1-.65.69.75.75,0,0,0-.17.22,1.49,1.49,0,0,1-.41.46,1.3786,1.3786,0,0,1-.53.19l-.21.06a1.3838,1.3838,0,0,0-.24.22,2.0006,2.0006,0,0,1-.48.41l-.39.19-.41.2a1.68,1.68,0,0,0-.8.88,2.1207,2.1207,0,0,0,.39,1.25,4.18,4.18,0,0,0,1.43,1.31.88.88,0,0,0,.93.17l.13-.07a1.64,1.64,0,0,1,.75-.27h.12a2.0705,2.0705,0,0,1,.07-.45c.09-.34.17-.29.55-.24h.69a2.0008,2.0008,0,0,1,.45.39c.25.23.28.12,0,.4a1.6127,1.6127,0,0,0-.34.39,1.24,1.24,0,0,1,.9.31,1.35,1.35,0,0,1,.48,1.2v.44l.11.12a13.494,13.494,0,0,1,1.25.64h.07a2.9072,2.9072,0,0,0,.27.17l.16.08.14.08h.12l1,.3a8.1406,8.1406,0,0,1,2.44,1.24,4.1592,4.1592,0,0,0,1.9.74,6.6215,6.6215,0,0,0,2.67,0,4.8931,4.8931,0,0,0,.64-.25,2.82,2.82,0,0,1,1.9-.31,6.6129,6.6129,0,0,1,.86.35,2.94,2.94,0,0,0,1.22.38h.52a3.11,3.11,0,0,1,1.28.23,2.2922,2.2922,0,0,0,.64.15,3.8319,3.8319,0,0,1,.72.16,3.3506,3.3506,0,0,1,1.09.75,2,2,0,0,0,.86.58,4.8435,4.8435,0,0,1,.79.23,5.3744,5.3744,0,0,0,.53.17,1.1767,1.1767,0,0,0,.3,0h.36a2.32,2.32,0,0,1,.49,0l.45.08a3,3,0,0,1,1.6.59,2.33,2.33,0,0,1,.57.8c0,.09.1.2.16.31a2,2,0,0,1,.26,1.23,2.52,2.52,0,0,0,.36,1.33c.1.21.16.36.22.5a3.84,3.84,0,0,0,.47.92,5.57,5.57,0,0,0,3.66,2.15,9.4769,9.4769,0,0,0,2,.11,7.4109,7.4109,0,0,1,2.24.23c1.39.33,2.75.78,4.07,1.22h.13a3.4381,3.4381,0,0,1,.52.24,2.291,2.291,0,0,0,.52.22h.11a1,1,0,0,1,.53.15.92.92,0,0,1,.3.32,1.7386,1.7386,0,0,0,.72.26,2.8915,2.8915,0,0,1,1.18.45,2.7681,2.7681,0,0,1,.45.45,2.5791,2.5791,0,0,0,.26.28,5.5687,5.5687,0,0,0,.61.42,5.0052,5.0052,0,0,1,.86.63,5.4362,5.4362,0,0,0,1.31.85l.57.31a2.08,2.08,0,0,0,1,.26,4.47,4.47,0,0,0,2.15-.7l.5-.28a4.5683,4.5683,0,0,0,.83-.51,5.2436,5.2436,0,0,0,1-1.22,6.0385,6.0385,0,0,1,.35-.53c.59-.89,1.05-1.59.7-2.55a3.0612,3.0612,0,0,0-.39-.68,5.4253,5.4253,0,0,1-.43-.74,8.75,8.75,0,0,1-.42-1.33l-.07-.3a4.3506,4.3506,0,0,1,1.13-3.9l1-1a4.2939,4.2939,0,0,1,.5-.42,3.5113,3.5113,0,0,0,.36-.3,5.2712,5.2712,0,0,1,1.55-.9,6.0814,6.0814,0,0,0,1-.48l.24-.17a3.0078,3.0078,0,0,1,.57-.35,3.4811,3.4811,0,0,1,1.54-.24h.2a2,2,0,0,0,1.5-.41,1.65,1.65,0,0,1,1.6-.31,2.3925,2.3925,0,0,0,.56.09h.23a4.3192,4.3192,0,0,0,.73,0h.07a.88.88,0,0,1,.33-.14h.14a.89.89,0,0,1,.67.33l.1.09h.45a2.22,2.22,0,0,1,.93.42l.16.1a3.7694,3.7694,0,0,0,.83.28h.14l.76.22c.39.12.78.23,1.16.32a2.43,2.43,0,0,1,.79.26.67.67,0,0,1,.36.87,1.5476,1.5476,0,0,1,.08.15,1,1,0,0,1,.21.57,1.1109,1.1109,0,0,1-.15.62,1.68,1.68,0,0,1,.68.6.5094.5094,0,0,1,.08.23l.26-.14a.49.49,0,0,1,.32,0,3.517,3.517,0,0,0,.85.1h.5a2.8747,2.8747,0,0,1,.68.07h.15a3.4009,3.4009,0,0,1,1.64.67.4708.4708,0,0,1,.13.29l.17.1a1.1808,1.1808,0,0,0,.36,0h.32a5.325,5.325,0,0,1,1,.06,6.0056,6.0056,0,0,0,1,0,.82.82,0,0,0,.27-.09,1.8071,1.8071,0,0,1,.43-.16,2.0008,2.0008,0,0,1,1,.14h.14l.33.06a2.4185,2.4185,0,0,1,.74.19.83.83,0,0,1,.52.91.19.19,0,0,0,0,.13,1.5014,1.5014,0,0,0,.23.29,2.5,2.5,0,0,1,.6,1v.07h0a1.9069,1.9069,0,0,0,.07.41,2.7485,2.7485,0,0,0,.93.11,3.873,3.873,0,0,0,.92-.24q.33-.12.66-.21l.28-.07a4,4,0,0,1,2-.12c.31.07.62.16.91.25a8.8441,8.8441,0,0,0,1.35.33l.43.05a9.71,9.71,0,0,1,2,.39.94.94,0,0,0,.29,0h.39a1.9141,1.9141,0,0,1,.33,0,1.8617,1.8617,0,0,1,.46.18l.18.08a.9415.9415,0,0,0,.23.09,2.2608,2.2608,0,0,0,.52,0h.4a.88.88,0,0,1,.86.61l.08.17a.4.4,0,0,0,.31.31l.53.13.25.07.26.06a2.8534,2.8534,0,0,0,.48-.15l.17-.07a.64.64,0,0,1,.74-.14.4993.4993,0,0,1,.25.26l.17.61a1.4765,1.4765,0,0,1,.06.26h.79l.44.05a3.4617,3.4617,0,0,0,1,0,3,3,0,0,1,1.53.27,4.457,4.457,0,0,0,.58.19,2.83,2.83,0,0,1,1.1.46,2.193,2.193,0,0,1,.24.24.83.83,0,0,0,.24.21,2,2,0,0,0,1.68.13,7.2824,7.2824,0,0,0,1.3-.55,4.8019,4.8019,0,0,0,.73-.54,5.9972,5.9972,0,0,1,.9-.66l.34-.2a.48.48,0,0,1,.28-.34,2.23,2.23,0,0,0,.69-.5.4666.4666,0,0,1,.1-.02l.34-.13a.5.5,0,0,1,.34,0,1.9179,1.9179,0,0,1,.34.2h.19a.84.84,0,0,0,.65-.54.82.82,0,0,1-.21-.51.6.6,0,0,1,.31-.48.85.85,0,0,1,.81.22l.12.08h.11a2.85,2.85,0,0,0,.82-.21l.66-.22c.38-.12.75-.24,1.11-.37h0a1.64,1.64,0,0,1,.8-.2,5,5,0,0,1,2.16.74l.17.09a1.73,1.73,0,0,0,1.55.06,1.8008,1.8008,0,0,0,.23-.13,1.19,1.19,0,0,1,1.24-.15,1.421,1.421,0,0,1,.49.58,1.8126,1.8126,0,0,0,.12.19,3.5455,3.5455,0,0,0,.58.44l.28.18.15.09h.09l.6.11h.09a.47.47,0,0,1,.3.27,3.664,3.664,0,0,0,.36.27,2.8193,2.8193,0,0,1,.46.36l.14.15a.62.62,0,0,0,.45.31h0a1.24,1.24,0,0,0,.48-.23,1.53,1.53,0,0,1,.83-.33.8206.8206,0,0,1,.51.18,1.82,1.82,0,0,0,1.09.44,1,1,0,0,0,.67-.23l.1-.07a1,1,0,0,1,.43-.11h0a.48.48,0,0,1,.29-.18.46.46,0,0,1,.32-.1,4.28,4.28,0,0,1,.59.13,2.1505,2.1505,0,0,0,.61.11,5.5487,5.5487,0,0,0,1.72-.43,6.0888,6.0888,0,0,0,1.51-.78.48.48,0,0,1,.64.05,2.0894,2.0894,0,0,1,.43.8l.09.23c.13.28.23.56.34.84.18.46.36.92.58,1.36,0,.07.08.15.13.23l.12.23a6.7546,6.7546,0,0,1,.62,1.52.6568.6568,0,0,0,.07.15,2.0028,2.0028,0,0,1,.14.31.9011.9011,0,0,1,0,.43.6594.6594,0,0,1,.35.35c.51,1.06,1,2.14,1.38,3.19l.11.38a5.8313,5.8313,0,0,1,.46,1.38v.27a1.0792,1.0792,0,0,0,.16.54.46.46,0,0,1,0,.47.49.49,0,0,1-.41.24,2.85,2.85,0,0,0-.39,1,2.4118,2.4118,0,0,1-.2.78,1.5491,1.5491,0,0,0-.13.48h0a.2011.2011,0,0,1,0,.06,1.0008,1.0008,0,0,1,.06.41.88.88,0,0,1-.23.44,2.6364,2.6364,0,0,0,0,.57,2.6485,2.6485,0,0,1-.1,1.09,2.75,2.75,0,0,1-.24.51,1.415,1.415,0,0,0-.18.39,1.1629,1.1629,0,0,1,0,.45.68.68,0,0,1-.33.41,2.5072,2.5072,0,0,0-.23.85.519.519,0,0,0,.09.2,1.6544,1.6544,0,0,1,.12.26,2.5909,2.5909,0,0,1,.07,1v.19a1.4206,1.4206,0,0,1-.41.9l-.11.24a.3687.3687,0,0,1-.09.1.71.71,0,0,1-.31.34l-.1.17a.61.61,0,0,1,0,.51.49.49,0,0,1-.27.27.45.45,0,0,1-.38,0,1.7,1.7,0,0,1-.35-.39.4.4,0,0,0-.2-.12h-.16a1.1,1.1,0,0,1-.68-.31,8.0043,8.0043,0,0,0-.86-.57l-.53-.37a2.8661,2.8661,0,0,1-.53-.53l-.08-.1a2.25,2.25,0,0,1-.22-.3l-.17-.24h0a1.51,1.51,0,0,1-.49-.61,1.2,1.2,0,0,0-.18-.29,2.2709,2.2709,0,0,0-.33-.19l-.07-.1a2.3407,2.3407,0,0,1-.65-.56l-.16-.17a1.4128,1.4128,0,0,0-.22-.19,2.0793,2.0793,0,0,1-.48-.49,2,2,0,0,1-.53-1.48,1.1817,1.1817,0,0,0,0-.19l-.06-.09-.09-.15a1.64,1.64,0,0,1-.16-.86.45.45,0,0,0-.08-.4l-.16-.14a2.9207,2.9207,0,0,1-.52-.5,2.1383,2.1383,0,0,0-.4-.34l-.32-.25a2.8019,2.8019,0,0,1-.63-.91,1.5805,1.5805,0,0,0-.41-.6h0a.42.42,0,0,1-.38-.35.2646.2646,0,0,1,0-.07h0v-.07h0V52.2a1.2784,1.2784,0,0,0-.11-.17,1.6181,1.6181,0,0,1-.15-.27,1.4108,1.4108,0,0,1-.06-.71.35.35,0,0,0,0-.24h-.05a1.46,1.46,0,0,1-.38-.56h0l-.1.13c-.58.8-.64,1-.33,1.32a4.6,4.6,0,0,0,.37.29,5.2954,5.2954,0,0,1,.64.53,3.48,3.48,0,0,1,.81,2.73.37.37,0,0,1-.06.11,5.4777,5.4777,0,0,0,.43.77.7517.7517,0,0,0,.18.13,2.3041,2.3041,0,0,1,.26.19,2.18,2.18,0,0,1,.58,1.08.9534.9534,0,0,0,.09.27v.08l.22.13a2.6514,2.6514,0,0,1,.64.77,2.3425,2.3425,0,0,0,.28.39,6.6809,6.6809,0,0,1,.59.73,4.1074,4.1074,0,0,0,.59.74l.15.14a2.7646,2.7646,0,0,1,.39.39,1.3689,1.3689,0,0,1,.12.19.6309.6309,0,0,1,.27.07,2.58,2.58,0,0,1,1.24,1.52c0,.07.06.14.09.21a.48.48,0,0,1-.09.71v.05h0a2.1471,2.1471,0,0,1,.15.19.48.48,0,0,1,.14.34.47.47,0,0,1-.19.38v.07a1.83,1.83,0,0,1,.72,1,.89.89,0,0,0,.33.52h.07a.92.92,0,0,1,.5.32,1.1,1.1,0,0,1,.17.81.9175.9175,0,0,0,0,.18.34.34,0,0,1,.23.15.9.9,0,0,1,.22.54v.1a2.0121,2.0121,0,0,0,.2.25,1.18,1.18,0,0,1,.41,1.2.54.54,0,0,1-.26.25v.33a.23.23,0,0,0,.13.26,2.4574,2.4574,0,0,1,.32.37,7.7411,7.7411,0,0,1,.5.86c.1.19.2.37.3.56.26.41.49.83.73,1.25.33.59.65,1.15,1,1.69l.21.31a17.1392,17.1392,0,0,1,1.5,2.49,17.4468,17.4468,0,0,0,1.4,2.52,3.7956,3.7956,0,0,1,.33.61,4.3449,4.3449,0,0,0,.23.43l.06.08a.89.89,0,0,1,.28.54v.13a1.9941,1.9941,0,0,0,0,.27,1.1764,1.1764,0,0,0,.19.22,1.9993,1.9993,0,0,1,.44.62l.11.2a1.38,1.38,0,0,1,.3,1.05,4.8189,4.8189,0,0,0,.75.66l.23.18a3.2611,3.2611,0,0,1,.61.81,4.6154,4.6154,0,0,0,.26.41h.09a1.54,1.54,0,0,1,.79.64.86.86,0,0,0,.18.22,1.12,1.12,0,0,1,.59.12,1.5905,1.5905,0,0,1,.64.76.5.5,0,0,1,.08.26.48.48,0,0,1-.48.48h0a.47.47,0,0,1-.32-.12l-.08-.06a.6987.6987,0,0,1-.31.06h0a2.1992,2.1992,0,0,1-.74-.14,1.2273,1.2273,0,0,1,0,.21.52.52,0,0,1,.14.23,3.18,3.18,0,0,1,.06,1.23,4.3262,4.3262,0,0,0,0,.65.68.68,0,0,0,.13.3,2.2681,2.2681,0,0,1,.22.5,2.9933,2.9933,0,0,1,.1.54,1.9941,1.9941,0,0,0,0,.27,1.809,1.809,0,0,0,.14.34l.07.11.08.17a.4985.4985,0,0,1,.13.2,2.3454,2.3454,0,0,0,.13.44,4.7533,4.7533,0,0,0,.2.61.4717.4717,0,0,1,.17.06,1.511,1.511,0,0,1,.58.77,1.2368,1.2368,0,0,0,.15.29,3.0917,3.0917,0,0,0,.71.46,1.8934,1.8934,0,0,0,.4.07,2.6536,2.6536,0,0,1,.45.06,2,2,0,0,1,1.36,1,2.1639,2.1639,0,0,1,.1.25l.09.11a1,1,0,0,1,.4.45,1.64,1.64,0,0,0,.56.65h.09a1.2392,1.2392,0,0,1,.4.15,1.9974,1.9974,0,0,1,.46.4,1.5589,1.5589,0,0,0,.28.25h.12a1.6208,1.6208,0,0,1,.26.1,1.5386,1.5386,0,0,1,.47.37,2.3139,2.3139,0,0,0,.17.16,1,1,0,0,1,.5.92.5487.5487,0,0,1-.06.25l-.06.1a1.7584,1.7584,0,0,1,.07.72v.53a3.7357,3.7357,0,0,0,.14.67,8.713,8.713,0,0,0,.78,1.41l.3.48a2.5645,2.5645,0,0,0,.5.56l.09.09a3.8287,3.8287,0,0,1,.58.69l.22.29a.86.86,0,0,1,.13.89.71.71,0,0,1-.89.34,8,8,0,0,1,.18.84,5.9958,5.9958,0,0,0,.25,1,2,2,0,0,1,.09,1.46.5306.5306,0,0,1-.12.17v.71a4.2932,4.2932,0,0,0,.1.87,2.4781,2.4781,0,0,1,.06.69,1.31,1.31,0,0,0,0,.44,4.11,4.11,0,0,1,.4,2.18,2.13,2.13,0,0,0,.19,1,4.6886,4.6886,0,0,1,.25.9,3.8578,3.8578,0,0,0,.17.79,7.9836,7.9836,0,0,1,.21,1,.49.49,0,0,0,.11.24,1.35,1.35,0,0,1,.27.7,1.46,1.46,0,0,0,.34.75,3.1927,3.1927,0,0,1,.16.29,1.0733,1.0733,0,0,0,.11.19h.94a.4993.4993,0,0,1,.18.06l.59.35a.48.48,0,0,1,.21.29,1.38,1.38,0,0,0,.5.35,2.8914,2.8914,0,0,1,.59.39,4.1343,4.1343,0,0,1,.33.39,1.9966,1.9966,0,0,0,.26.31l.12.1a.68.68,0,0,1,.28.75.8157.8157,0,0,0,.15.13.66.66,0,0,1,.55-.31h.15a.48.48,0,0,1,.38.53.6516.6516,0,0,1,.29,0,.72.72,0,0,1,.44.44,2.309,2.309,0,0,0,.25.16.4505.4505,0,0,1,.24,0,1.06,1.06,0,0,1,.67.73.69.69,0,0,1,0,.35h0a2.0865,2.0865,0,0,0,.24.49,4.6043,4.6043,0,0,1,.24.46,5.2108,5.2108,0,0,0,.45.74l.22.33a3.9324,3.9324,0,0,1,.37.73l.08.19a3.6645,3.6645,0,0,0,.24.38,3.2974,3.2974,0,0,1,.38.67,2.4374,2.4374,0,0,1,.12.55,1.3444,1.3444,0,0,0,.06.34,2.9885,2.9885,0,0,0,.15.29,2.341,2.341,0,0,1,.28.57,14.8717,14.8717,0,0,0,.54,1.68,5.2692,5.2692,0,0,1,.41,1.81,2.6419,2.6419,0,0,0,.17.7,5.2117,5.2117,0,0,1,.22.91v.21a8.2682,8.2682,0,0,0,.31,1.58,5.0058,5.0058,0,0,0,.3.79,1.0006,1.0006,0,0,0,.34.36,2.3118,2.3118,0,0,1,.51.53,1,1,0,0,1,.13.55.59.59,0,0,0,0,.17,1.7592,1.7592,0,0,1,.1.34v.05a.6.6,0,0,1,.11.5,1.26,1.26,0,0,1,1,1.1.9031.9031,0,0,1,.14-.28,1.0013,1.0013,0,0,1,.39-.31h0a.54.54,0,0,1,.61-.21,2.37,2.37,0,0,1,.84.56l.28.23a.74.74,0,0,1,.4187.9591.7209.7209,0,0,1-.0487.1009.7112.7112,0,0,0-.07.15l.13.29a2.39,2.39,0,0,1,.15.39,2.63,2.63,0,0,0,.13.31l.09.09a1.87,1.87,0,0,1,.2.23.6213.6213,0,0,1,.1.2l.24.1a1.16,1.16,0,0,1,.91-.52.9994.9994,0,0,1,.36.07.4994.4994,0,0,1,.28,0,.74.74,0,0,1,.57.45.68.68,0,0,1,.44.27h0a.51.51,0,0,1,.51.41v.05a.5294.5294,0,0,1,.15.19.81.81,0,0,1,.05.53h.19a1.74,1.74,0,0,1,.91.24,1,1,0,0,0,.39.09,3.7642,3.7642,0,0,1,.42.06,1.38,1.38,0,0,1,.89.57l.06.09a1.3185,1.3185,0,0,0,.24.19,1.701,1.701,0,0,1,.55.59,1.1206,1.1206,0,0,1,.11.32.23.23,0,0,0,.1.13,1.2092,1.2092,0,0,1,.27.27.9991.9991,0,0,1,.17.33.649.649,0,0,0,.2.23,1.6008,1.6008,0,0,1,.4.41,3.119,3.119,0,0,1,.16.3.9963.9963,0,0,0,.19.3,2.622,2.622,0,0,1,.63.82l.1.21a.6712.6712,0,0,0,.22,0h.16a.8393.8393,0,0,1,.39.21.68.68,0,0,0,.33.13,1.7372,1.7372,0,0,1,.5.15,1.12,1.12,0,0,1,.52.62,1.9,1.9,0,0,0,.1.19,1.19,1.19,0,0,1,.47.55c0,.06.08.14.1.17l1.18,1a.46.46,0,0,1,.13.18l.1.23a3.1077,3.1077,0,0,1,.24.7v.23a1.117,1.117,0,0,0,.06.43h.13a.55.55,0,0,1,.45-.25.6.6,0,0,1,.51.42,1.891,1.891,0,0,0,.15.17l.21.21a4.9712,4.9712,0,0,0,.43.43,1.37,1.37,0,0,1,.51.77,1.2269,1.2269,0,0,1,.06.2,1.2624,1.2624,0,0,0,.09.31h.17a1.0012,1.0012,0,0,1,.35.22.54.54,0,0,1,.15-.36.69.69,0,0,1,.42-.17.75.75,0,0,1,.58.37,1.12,1.12,0,0,1,.42.72v.11a.642.642,0,0,0,0,.1v.05h0l1.31,1.49a.47.47,0,0,1,.12.28,3.2781,3.2781,0,0,0,.3,1,2.9,2.9,0,0,1,.28,2,1.25,1.25,0,0,1-1.14.85,1.2615,1.2615,0,0,0-.41.12,1.28,1.28,0,0,0-.24.27,2.39,2.39,0,0,1-.37.42,2.7391,2.7391,0,0,1-1.16.5h-.18a.91.91,0,0,0-.76.53.9978.9978,0,0,0-.06.16l-.09.19,2.67-.19a.46.46,0,0,1,.49.35.52.52,0,0,1,.32.44,2,2,0,0,0,.69.62c.07,0,.11.11.2.14s.1-.18.15-.14a.47.47,0,0,1,.05.43.76.76,0,0,0,.29.78,1.6709,1.6709,0,0,1,.51.74c.78,1.58,2.44,2.7,3.83,3.77a2.5387,2.5387,0,0,0,.8.51,4.1184,4.1184,0,0,0,1.13.08,15.0169,15.0169,0,0,1,1.52-.25c.3,0,.57.21.88.24a1.5906,1.5906,0,0,0,1-.51c.34-.2.7-.38,1-.58a2,2,0,0,1,.83-.49,1.58,1.58,0,0,0,1-.37c.35-.28.74-.45,1.09-.73a1.2576,1.2576,0,0,1,.35-.3c.31,0,.43.51.65.34a.89.89,0,0,1,.69.19,3.0821,3.0821,0,0,0,.88.15c.49,0,.69-.25,1,.15a1,1,0,0,0,.79.39c.46,0,.82-.29,1.27-.34a2.6587,2.6587,0,0,0,.83-.41,18.0124,18.0124,0,0,1,1.54-1c1.09-.56,2.11-2,3.56-1.3a1.08,1.08,0,0,0,.91.26,4,4,0,0,1,1.39-.08,2,2,0,0,0,1.96-.14,2.76,2.76,0,0,1,.59-.26,1.2679,1.2679,0,0,1,.33-.31c.48-.14,1-.14,1.45-.26s1.24.35,1.83.47l1.08-.12a7,7,0,0,0,1.31-.35,4.4549,4.4549,0,0,1,.87-.13,2.5009,2.5009,0,0,0,.73-.5,1.56,1.56,0,0,1,.8-.36c.34-.08.61.15,1,0a4.35,4.35,0,0,1,.87-.3,1.77,1.77,0,0,0,1-.16,7.4659,7.4659,0,0,1,.76-.33c.26-.12.43-.35.69-.49a1.62,1.62,0,0,0,.74-.5,3.8421,3.8421,0,0,0,.28-.83,1,1,0,0,1,.57-.55,5.7138,5.7138,0,0,1,.87-.29,4.3483,4.3483,0,0,1,1.36.48,2,2,0,0,0,.78.27,2.928,2.928,0,0,1,1,.3c0,.3-.24.49-.21.81,0,.57-.72,1-.65,1.55s-.62,1.4-.14,1.89c.3.31.56.06.42.57a3.8614,3.8614,0,0,0-.21.71,11.885,11.885,0,0,0,.13,1.47,2.84,2.84,0,0,0,.13.75.7881.7881,0,0,0,.09.32A5.002,5.002,0,0,1,428.08,177.79Z" transform="translate(-0.0235 -0.0408)" style="fill:#00acc8"/><path d="M55.16,203.75a2.005,2.005,0,0,1,0-.29c-.19.21-.5.4-.12.47l.15.02A1.4071,1.4071,0,0,1,55.16,203.75Z" transform="translate(-0.0235 -0.0408)" style="fill:#fff"/><path d="M168.91,246.24a10.9476,10.9476,0,0,1-1.12-.81,3.2709,3.2709,0,0,0,.83.8h0Z" transform="translate(-0.0235 -0.0408)" style="fill:#fff"/><path d="M175.69,24.95a.52.52,0,0,1,.17-.27.42.42,0,0,0-.29-.44h-.09a1.21,1.21,0,0,1-.09,1.1h0a1.63,1.63,0,0,0,.35-.11A.56.56,0,0,1,175.69,24.95Z" transform="translate(-0.0235 -0.0408)" style="fill:#fff"/><path d="M176.38,24.42c0-.15-.12-.08-.25.06Z" transform="translate(-0.0235 -0.0408)" style="fill:#fff"/><path d="M301.64,40.23a2,2,0,0,0,.9.27l-.19-.11-.11-.07a2.36,2.36,0,0,1-.3-.19.44.44,0,0,1-.19-.11A.59.59,0,0,1,301.64,40.23Z" transform="translate(-0.0235 -0.0408)" style="fill:#fff"/></svg>